<?xml version="1.0" encoding="utf-8"?>
<!-- Generator: Adobe Illustrator 19.2.1, SVG Export Plug-In . SVG Version: 6.00 Build 0)  -->
<svg version="1.1" baseProfile="basic" id="Layer_1"
	 xmlns="http://www.w3.org/2000/svg" xmlns:xlink="http://www.w3.org/1999/xlink" viewBox="0 0 400.2 395.9">
<style type="text/css">
	.st0{fill:#FFFFFF;}
	.st1{fill:#B5B5B5;}
	.st2{fill:#0F0F10;}
	.st3{fill:#12814B;}
	.st4{fill:#E83030;}
	.st5{fill:#1074BC;}
	.st6{fill:#FFD432;}
	.st7{fill:#101111;}
</style>
<title>logo_slb-01</title>
<path class="st0" d="M245.9,97.7c-0.2,1.8-1.7,3-2.4,4.5c-1,2.3-0.8,5.3-2.6,7.5l-2.1,0.2c-0.3,3.4-1.5,6.6-3.5,9.3
	c2.3,1.2,4.8,1.6,6.9,2.7c0.9,0.5,2.1,2,2.6,2.3c9.2,4.3,18.1,7.3,26.9,12.2l2.5,0.4l3.8,1.1l3.7,1l3.9,1.2l3.8,1.3l0.5,0.2l1.1,0.4
	l6,2.3l7.6,3.1l7.3,3.4l7,3.4l6.8,3.5l6.2,3.4l5.7,3.2l5,3l4.4,2.6l6.2,3.9l12.9,8.2l-1.2,0.1l-17.8,1.6l-10.4,0.9l2.9,23.2l0,0
	c-2.3-1.6-6.3-3.9-10.3-6.5c7.6,17.5,11.5,36.3,11.5,55.4c0,76.9-62.5,139.2-139.3,139.2c-76.9,0-139.2-62.3-139.2-139.2
	c0-19.1,3.9-37.9,11.5-55.4c-4,2.7-7.4,5-9.7,6.6l0.1-0.5l-0.6,0.4l3-23.1l-28.3-2.4l-1.7-0.3l13.3-8.4l6.2-3.9l4.5-2.7l5-3l5.7-3.2
	l6.4-3.5l6.8-3.5l7-3.5l7.6-3.4l7.5-3.1l7.8-3l3.9-1.3l3.9-1.1l3.8-1l3.8-1.1l2.6-0.6c12.5-7.2,26.1-12.3,40.2-15.3
	c1-0.9,1.8-2,2.3-3.2l-0.3-0.6c-6.1-2.3-5.1-8.4-5-14.1c-0.2,4.7-1.3,2.9-2.7,1.1c-0.2-1.2-0.3-2.5-0.3-3.8l-1.8-0.4
	c-0.3-2-0.5-4.1-0.4-6.1c-3.8,2.4-7.7,3.3-12.1,1.3c-4.4,0.7-5.4,3.1-10.8,2l-1.5-1.4c-2.2,0.9-4.8-0.7-6.8-1
	c-5.1-0.6-24-1.1-25.2-8.6c-1.6-0.5-5.8-3.4-5.8-5.2c-7.4-1.8-17.3-3-23.1-8.2c-8.4-0.2-18.2-5.4-24.6-10.4
	c-1.8-1.4-3.2-4.1-4.8-5.2c-3.4-2.3-7.6-3.4-11.1-6c-1.8-1.3-3.5-4-5.2-5.1c-2.6-1.7-5.8-2.4-8.4-4.4c-1.6-1.3-3-3.6-4.5-4.7
	C15.8,33.3,10.6,33.2,6,29c-4-3.8-6-6.3-6-12.2c4.8-4.6,47.3-2.5,51.8-2.5c23.3-0.2,64.5-3.8,86.7,3.8c8.1,2.7,14.9,8.4,18.9,16
	c10.8,3.4,8.6,8.6,15.5,14.2c0-1.8,0.2-3.6,0.6-5.4l1.6-1.2c-1.6-1.3-3.1-3.4-2.8-5.5l-3.4-6.9c-2.6-1.8-13.6-5.8-11.9-10.8
	l-2.3,1.1c-11.9-10.6,6-23.8,18.9-18.1c2.3-0.8,4.7-1.1,7.1-0.8l1.8,0.3c5.9,1.2,11,5.1,16.9,6.2c5.6,1,3.7-3.2,11.5,1.4l-0.5,2.9
	c2.1,0.7,4,1.8,5.7,3.2v2.9c1,0.3,2.7,2.2,3.4,3v1.7c4.1,1.2,13,9.3,9.9,14.1c2.7,3,4.3,6.3,3.3,10.4l0.5,0.8h0.8
	c2.9-4.7,6.3-14.3,13.1-15.3c15-26.3,71-18.7,94.6-19.2c12.5-0.2,24.9,0.1,37.3,0.1c4.1,0,11.7-1.5,15.9-0.4
	c1.9,0.6,3.6,1.5,5.3,2.5c-1.6,7.9-5.3,11.9-12.8,15.1l-5,1.9c-4.4,3.1-11,11.1-15.1,14.9c-3.4,3.1-8,4.5-11.2,7.1
	c-1.4,1.2-2.5,3.1-3.9,4.4c-6.7,6.2-16.6,10.2-25.5,11.8c-5.4,6.3-13.2,8.2-21,8.4c-1.3,0.9-2.7,1.7-4.2,2.4
	c-0.2,0.8-1.9,3.2-2.7,3.3c-0.4,3.2-4.9,7.5-8.1,7c-1.7,1.9-15.6,3.2-17.8,1.9c-2.1,1.6-4.7,2.3-7.3,2.1c-4.5,3.7-10.9,0.5-12.4,1
	C250.4,97.3,249,98.1,245.9,97.7z"/>
<path class="st1" d="M136.6,167.8c-49,36.3-59.4,105.5-23,154.5c15,20.3,36.6,34.8,61,41.2c7.7,8.3,15.9,16.1,24.6,23.5
	c-72-1.3-129.3-60.7-128-132.7c0.4-24.5,7.8-48.4,21.2-68.9c16-9.6,34.8-19.3,43.3-17.9L136.6,167.8z M312.6,256.6
	c0-35.2-16.7-68.3-45.1-89.1c8.7-1.3,27.3,8.3,43.2,17.9c39.3,60.3,22.2,141.1-38.1,180.3c-20,13.1-43.3,20.3-67.2,21.1
	c8.7-7.3,16.9-15.1,24.7-23.4C278.7,350.8,312.6,306.9,312.6,256.6L312.6,256.6z M201.4,126.3c19.9,0,39.6,4.5,57.4,13.3l-1.6,0.4
	c-11.6,2.9-23,6-34.7,8.1c-13.7-2.6-27.8-2.5-41.5,0.2c-7.3-1.3-14.3-2.9-20.5-4.4c-2-0.5-10.3-2.9-16.5-4.2
	C161.9,130.8,181.6,126.3,201.4,126.3z"/>
<path class="st2" d="M235.7,271.1l1.1-1.1l0.4,0.4l0.4,0.4l0.4,0.4l0.4,0.4l0.3,0.4l0.4,0.5l0.4,0.5l-1.2,0.9l-0.3-0.4l-0.4-0.4
	l-0.4-0.5l-0.4-0.4l-0.3-0.4l-0.4-0.4L235.7,271.1z"/>
<polygon class="st2" points="211,294.9 209.7,294.7 189.5,314.9 190.6,315.9 210.8,295.7 209.5,295.5 211,294.9 210.6,293.7 
	209.7,294.7 "/>
<polygon class="st2" points="198.4,260.2 198.4,260.3 198.5,260.4 200,259.9 199.9,259.8 200,259.8 "/>
<polygon class="st2" points="159.5,299.6 160.8,299.8 161.6,299 160.5,297.8 159.7,298.7 160.9,299 159.5,299.6 159.9,300.7 
	160.8,299.8 "/>
<polygon class="st2" points="243.1,262.3 242,262.3 235,269.3 236.1,270.4 243.1,263.3 242,263.3 243.1,262.3 242.6,261.6 
	242,262.3 "/>
<polygon class="st2" points="235,269.3 235,270.4 235,270.4 235,270.5 235,270.5 235.1,270.5 235.1,270.5 235.1,270.6 235.1,270.6 
	235.3,270.7 235.3,270.8 235.4,270.8 235.4,270.9 235.5,270.9 235.5,270.9 235.6,270.9 235.6,270.9 235.6,271 235.7,271 235.7,271 
	235.7,271.1 235.7,271.1 236.8,270 236.8,270 236.7,269.9 236.7,269.9 236.7,269.9 236.6,269.8 236.6,269.8 236.6,269.8 
	236.5,269.7 236.4,269.7 236.4,269.6 236.3,269.6 236.3,269.6 236.2,269.5 236.1,269.4 236.1,269.4 236.1,269.3 236.1,269.3 
	236.1,269.3 236,269.3 236.1,269.3 236.1,270.4 235,269.3 234.4,269.9 235,270.4 "/>
<polygon class="st2" points="229.3,275 229.3,275 223.5,280.7 224.6,281.9 230.3,276.1 230.3,276.1 "/>
<polygon class="st2" points="235.9,269.2 235,269.3 229.3,275 230.3,276.1 236.1,270.4 235.1,270.5 235.9,269.2 235.4,268.9 
	235,269.3 "/>
<polygon class="st2" points="224.6,280.8 223.5,280.7 209.7,294.7 210.8,295.7 224.6,281.9 223.5,281.8 224.6,280.8 224.1,280.1 
	223.5,280.7 "/>
<polygon class="st2" points="190.1,314.6 189.5,314.9 181.8,322.5 182.9,323.6 190.6,315.9 190.1,316.1 "/>
<polygon class="st2" points="168.2,292.3 168,292.6 161.6,299 160.5,297.8 167.1,291.2 174.6,283.7 198.7,259.7 218.3,240 
	219.4,241.1 199.8,260.8 198.9,261.6 175.3,285.3 174.4,286.2 "/>
<path class="st2" d="M241.7,276.4"/>
<polygon class="st3" points="202.9,177.8 198,177.5 192.9,176.9 181.9,175.3 170.8,173.4 160.2,171.4 143.2,167.7 136.4,166.1 
	134.7,166 132.9,166 130.9,166.3 128.8,166.6 126.6,167.3 124.1,168 119,170 113.5,172.4 107.9,175.2 102.2,178.2 96.6,181.4 
	86.1,187.7 77.3,193.3 69.1,198.8 71.4,180.7 49.8,178.8 52.1,177.3 58.2,173.4 62.7,170.8 67.7,167.8 73.3,164.6 79.7,161.1 
	86.4,157.7 93.4,154.3 100.8,150.9 108.2,147.8 115.8,144.9 119.6,143.6 123.4,142.5 127.2,141.4 130.9,140.4 134.5,139.6 
	138.2,139 139.3,139 141,139.3 146,140.4 152.9,142.1 161.1,144.3 170.6,146.5 175.8,147.6 181.1,148.7 186.4,149.6 191.9,150.3 
	197.4,150.8 202.9,151.3 "/>
<polygon class="st4" points="202.2,178 206.9,177.6 212.1,177 222.9,175.5 233.8,173.6 244.3,171.6 261,168 267.7,166.5 
	269.4,166.3 271.2,166.3 273.1,166.6 275.2,167 277.5,167.6 279.9,168.3 284.9,170.3 290.3,172.7 295.8,175.3 301.3,178.4 
	306.9,181.5 317.3,187.7 325.9,193.1 334,198.6 331.8,180.8 352.9,178.8 350.8,177.5 344.7,173.6 340.4,171 335.4,168.1 
	329.7,164.9 323.6,161.6 317,158.1 310,154.8 302.9,151.4 295.5,148.4 288,145.6 284.3,144.3 280.5,143.2 276.8,142.1 273.2,141.1 
	269.5,140.4 266,139.7 264.9,139.7 263.2,140 258.2,141.1 251.6,142.8 243.4,145 234,147.1 229,148.3 223.8,149.2 218.5,150.1 
	213.1,150.8 207.6,151.4 202.2,151.8 "/>
<path class="st2" d="M196.5,160.6l1.6-0.1l0.3,4.7c0,0.6,0.3,1.2,0.8,1.5c0.6,0.4,1.2,0.5,1.9,0.4c0.7,0,1.3-0.2,1.9-0.6
	c0.5-0.4,0.7-1,0.6-1.6l-0.3-4.6l1.6-0.1l0.3,4.8c0.1,0.9-0.3,1.7-0.9,2.3c-0.9,0.6-2,1-3.2,0.9c-1.1,0.1-2.3-0.1-3.3-0.6
	c-0.7-0.5-1.1-1.4-1-2.2L196.5,160.6z M184.5,166.8l0.9-7.6l2.6,0.4c0.6,0,1.1,0.1,1.6,0.3c0.3,0.1,0.6,0.2,0.9,0.4
	c0.3,0.2,0.5,0.4,0.7,0.7c0.1,0.3,0.1,0.7,0.1,1c0,0.4-0.2,0.7-0.5,0.9c-0.3,0.3-0.7,0.4-1.1,0.4c0.5,0.2,1,0.4,1.4,0.8
	c0.3,0.4,0.4,0.9,0.3,1.4c0,0.3-0.1,0.6-0.3,0.8c-0.2,0.2-0.4,0.4-0.7,0.6c-0.3,0.2-0.7,0.4-1.1,0.4c-0.4,0-1.1-0.1-2.1-0.1
	L184.5,166.8z M186.7,162.7h0.6c0.6,0.1,1.1,0.1,1.7,0c0.4-0.1,0.6-0.4,0.6-0.8c0.1-0.4,0-0.7-0.3-1c-0.5-0.2-1.1-0.4-1.7-0.4
	l-0.7-0.1L186.7,162.7z M186.2,166l0.6,0.1c0.5,0.1,0.9,0.1,1.4,0.2c0.3,0,0.5-0.1,0.7-0.1c0.2-0.1,0.4-0.3,0.5-0.4
	c0.1-0.2,0.2-0.3,0.1-0.5c0.1-0.2,0-0.5-0.1-0.7c-0.1-0.2-0.3-0.4-0.5-0.4c-0.2-0.2-0.4-0.2-0.6-0.2c-0.2-0.1-0.4-0.2-0.7-0.2
	l-0.6-0.1l-0.5-0.1L186.2,166z M176.2,165.5l1.4-7.5l1.6,0.3l-1.4,7.5L176.2,165.5z M166.4,159.9l-0.8,3.4l-1.6-0.4l1.7-7.4l2.3,0.5
	c0.7,0.2,1.2,0.3,1.5,0.4c0.3,0.2,0.6,0.4,0.9,0.6c0.3,0.2,0.5,0.5,0.6,0.9c0.1,0.3,0.1,0.7,0,1c-0.1,0.5-0.4,1-0.9,1.3
	c-0.6,0.3-1.3,0.3-1.9,0.2l2.7,4.2l-1.9-0.4l-2.6-4.1L166.4,159.9L166.4,159.9z M166.8,158.9l0.2,0.1c0.6,0.2,1.2,0.2,1.8,0.3
	c0.3-0.1,0.5-0.4,0.6-0.8c0.1-0.4,0-0.8-0.3-1c-0.5-0.4-1-0.6-1.6-0.6l-0.3-0.1L166.8,158.9z M151.2,151.9l1.6,0.4l-1,4.5
	c-0.2,0.6-0.1,1.2,0.2,1.7c0.5,0.5,1.1,0.8,1.8,0.9c0.7,0.2,1.4,0.2,2.1-0.1c0.5-0.2,0.9-0.7,0.9-1.3l1-4.6l1.6,0.4l-1.1,4.6
	c-0.2,0.9-0.7,1.6-1.5,2c-1.1,0.3-2.2,0.3-3.3,0c-1.1-0.1-2.2-0.7-2.9-1.5c-0.5-0.7-0.7-1.6-0.5-2.5L151.2,151.9z M128.2,153.1
	l0.4,3.4l-1.5,0.3l-0.8-7.6l2.5-0.2c0.5-0.1,1.1-0.1,1.6-0.1c0.3,0,0.7,0.1,1,0.2c0.3,0.1,0.6,0.3,0.8,0.6c0.3,0.3,0.4,0.6,0.4,1
	c0.1,0.3,0,0.7-0.2,1c-0.2,0.3-0.4,0.6-0.7,0.9c-0.3,0.1-0.5,0.3-0.9,0.4c-0.6,0.2-1.1,0.3-1.7,0.3h-0.3L128.2,153.1z M128.2,152.1
	h0.4c0.6-0.1,1.2-0.2,1.8-0.4c0.3-0.1,0.5-0.5,0.4-0.8c0-0.4-0.3-0.7-0.6-0.8c-0.6-0.2-1.2-0.2-1.8-0.1L128,150L128.2,152.1z
	 M286.5,156.7v-0.5c0.1-0.2,0.1-0.3,0.1-0.5c-0.1,0.1-0.2,0.3-0.3,0.4l-0.4,0.4l-3.7,3.2l-1.5-4.7c-0.1-0.3-0.1-0.3-0.2-0.6
	s-0.1-0.3-0.1-0.4c-0.1,0.1-0.1,0.3-0.2,0.4c-0.1,0.2-0.2,0.3-0.3,0.4l-2,3.2l-1.4-0.4l4.4-7l1.7,5.4c0,0.2,0,0.2,0,0.4
	c0.1,0.2,0.2,0.5,0.2,0.8c0.2-0.3,0.4-0.5,0.7-0.7c0.1-0.1,0.1-0.2,0.2-0.3l4.1-3.8l0.3,8.3l-1.4-0.5L286.5,156.7z M261.8,149.6
	l1.7-0.1l0.5,4.5c0,0.6,0.2,1.1,0.7,1.5c0.6,0.3,1.4,0.4,2.1,0.3c0.7,0,1.3-0.2,1.9-0.6c0.4-0.5,0.6-1,0.5-1.6l-0.5-4.6l1.7-0.1
	l0.4,4.6c0.2,0.9-0.1,1.9-0.9,2.5c-0.9,0.6-2,1-3.1,1c-1.1,0.2-2.3,0-3.3-0.5c-0.8-0.5-1.3-1.3-1.3-2.2L261.8,149.6z M247.1,160.8
	l-1.8-7.8l7.5,3.1c0.2,0.1,0.4,0.2,0.6,0.3c0.2,0.1,0.5,0.2,0.7,0.3l-1.1-5.2l1.5-0.4l1.8,7.7l-7.6-3.1c-0.2-0.1-0.4-0.1-0.6-0.3
	c-0.2-0.1-0.4-0.3-0.6-0.4l1.2,5.1L247.1,160.8z M230.7,156.7l1.5-0.4l1,4.5c0.1,0.6,0.5,1.1,1,1.4c0.6,0.2,1.3,0.3,2,0.1
	c0.7-0.1,1.3-0.5,1.8-1c0.3-0.5,0.5-1.1,0.3-1.6l-1.1-4.5l1.7-0.4l1,4.6c0.3,0.9,0.1,1.9-0.5,2.6c-0.8,0.7-1.8,1.2-2.9,1.4
	c-1.1,0.3-2.3,0.3-3.3,0c-0.8-0.4-1.3-1.2-1.6-2.1L230.7,156.7z M211.2,166l1.3-0.6c0.2,0.3,0.4,0.5,0.7,0.7
	c0.4,0.2,0.9,0.2,1.4,0.1c0.4,0,0.8-0.2,1.1-0.5c0.3-0.2,0.4-0.5,0.4-0.8c-0.3-0.6-0.9-1-1.6-1c-0.1,0-0.3,0-0.4-0.1
	c-0.8-0.1-1.7-0.4-2.4-0.9c-0.4-0.2-0.7-0.7-0.7-1.1c-0.1-0.6,0.2-1.2,0.7-1.5c0.6-0.5,1.3-0.9,2.1-1c0.7,0,1.3,0,2,0.2
	c0.5,0.1,0.9,0.4,1.2,0.8l-1.3,0.7c-0.2-0.2-0.5-0.4-0.7-0.5h-0.9c-0.4,0-0.7,0.1-1,0.4c-0.3,0.2-0.4,0.5-0.4,0.8
	c0.1,0.4,0.7,0.7,2,1c0.8,0.1,1.6,0.3,2.4,0.7c0.4,0.3,0.7,0.7,0.7,1.2c0.1,0.7-0.1,1.4-0.7,1.8c-0.7,0.6-1.5,0.9-2.4,1
	c-0.8,0.1-1.5,0-2.3-0.3C211.9,166.9,211.5,166.5,211.2,166z M138.9,157l1.5-7.5l1.6,0.3l-1.2,6.4l3.7,0.7l-0.3,1.1L138.9,157z
	 M107.4,162.6l-2.6-7.2l5.4-2l0.4,1l-3.9,1.4l0.7,1.8l4-1.4l0.3,1l-3.8,1.5l0.8,2.3l3.9-1.4l0.4,1L107.4,162.6z"/>
<path class="st2" d="M200.6,168.6c-1,0-2-0.2-2.9-0.7c-0.8-0.6-1.3-1.5-1.2-2.5l-0.4-5.1l2.3-0.1l0.3,5c0,0.5,0.2,1,0.6,1.3
	c0.5,0.3,1.1,0.4,1.7,0.4c0.6,0,1.2-0.2,1.7-0.5c0.4-0.4,0.5-0.9,0.5-1.4L203,160l2.3-0.2l0.4,5.1c0.1,1-0.3,2-1,2.6
	c-1,0.7-2.2,1-3.4,1C201.1,168.5,200.9,168.5,200.6,168.6L200.6,168.6L200.6,168.6z M196.9,160.9l0.3,4.5c-0.1,0.8,0.2,1.5,0.9,2
	c1,0.4,2,0.6,3.1,0.5c1.1,0.1,2.1-0.2,3-0.8c0.6-0.5,0.9-1.3,0.8-2.1l-0.3-4.4l-1,0.1l0.3,4.2c0.1,0.7-0.2,1.4-0.7,1.9
	c-0.6,0.4-1.4,0.6-2.1,0.7l0,0c-0.7,0.1-1.5-0.1-2.1-0.5c-0.6-0.4-0.9-1.1-0.9-1.8l-0.3-4.3L196.9,160.9L196.9,160.9L196.9,160.9z
	 M214.7,167.7L214.7,167.7c-0.8,0.1-1.6,0-2.4-0.3c-0.6-0.2-1.1-0.7-1.4-1.3l-0.1-0.3l1.9-0.9l0.1,0.4c0.1,0.2,0.3,0.4,0.6,0.5
	c0.4,0.1,0.8,0.1,1.1,0c0.3,0,0.7-0.1,0.9-0.4c0.2-0.1,0.3-0.3,0.3-0.5c-0.3-0.5-0.8-0.8-1.4-0.8c-0.2,0-0.4-0.1-0.5-0.2
	c-0.8-0.1-1.7-0.4-2.4-0.8c-0.5-0.3-0.8-0.8-0.8-1.4c-0.1-0.7,0.2-1.4,0.8-1.8c0.7-0.5,1.5-0.9,2.3-1c0.7-0.1,1.4,0,2.1,0.2
	c0.5,0.2,1,0.5,1.3,0.9l0.3,0.3l-1.9,1l-0.2-0.1c-0.2-0.2-0.4-0.3-0.6-0.4h-0.8c-0.3,0-0.6,0.1-0.8,0.3c-0.2,0.1-0.3,0.3-0.2,0.5
	c0.5,0.4,1.1,0.6,1.7,0.7c0.8,0.1,1.6,0.3,2.3,0.6l0.2,0.1c0.5,0.3,0.8,0.8,0.8,1.4c0.1,0.8-0.2,1.6-0.8,2.1
	C216.6,167.2,215.7,167.6,214.7,167.7L214.7,167.7L214.7,167.7L214.7,167.7L214.7,167.7z M211.7,166.1c0.2,0.3,0.5,0.5,0.9,0.6
	c0.7,0.2,1.4,0.3,2.1,0.2c0.8-0.1,1.6-0.4,2.2-0.9c0.5-0.4,0.7-0.9,0.6-1.5c0-0.4-0.2-0.8-0.6-1c-0.7-0.3-1.5-0.5-2.2-0.6
	c-1.4-0.4-2.1-0.7-2.3-1.3c0-0.4,0.1-0.8,0.5-1.1c0.3-0.3,0.8-0.5,1.2-0.5h0.9c0.3,0.1,0.6,0.2,0.8,0.4l0.6-0.3
	c-0.2-0.2-0.5-0.3-0.7-0.4c-0.6-0.1-1.2-0.2-1.8-0.1c-0.7,0.1-1.4,0.4-1.9,0.9c-0.4,0.3-0.6,0.8-0.6,1.3c0,0.4,0.2,0.7,0.5,0.9
	c0.7,0.4,1.5,0.7,2.3,0.8l0.3,0.1c0.8,0,1.6,0.5,1.9,1.3c0.1,0.4-0.1,0.9-0.5,1.1c-0.3,0.4-0.8,0.6-1.3,0.6c-0.5,0.1-1,0.1-1.5-0.1
	c-0.3-0.1-0.5-0.3-0.7-0.5L211.7,166.1L211.7,166.1L211.7,166.1z M189.3,167.7L189.3,167.7c-0.3,0-0.8,0-1.5-0.1l-3.6-0.4l1-8.2
	l3,0.4c0.6,0,1.1,0.1,1.7,0.3c0.3,0.1,0.6,0.2,0.9,0.4c0.3,0.2,0.6,0.5,0.9,0.8l0.1,0.2c0.1,0.3,0.1,0.7,0.1,1
	c-0.1,0.4-0.3,0.9-0.6,1.1c-0.1,0.1-0.2,0.2-0.4,0.2c0.2,0.1,0.4,0.3,0.6,0.4c0.4,0.5,0.5,1.1,0.4,1.7c0,0.4-0.1,0.7-0.4,1
	c-0.2,0.3-0.4,0.5-0.7,0.6c-0.4,0.2-0.8,0.4-1.3,0.5l0,0H189.3z M184.9,166.5l2.9,0.4c0.6,0.1,1.1,0.1,1.4,0.1c0.4,0,0.7-0.2,1-0.4
	c0.2-0.1,0.4-0.3,0.6-0.5c0.1-0.2,0.2-0.4,0.2-0.6c0.1-0.4,0-0.8-0.2-1.2c-0.4-0.3-0.8-0.5-1.2-0.7v-0.6c0.3,0,0.7-0.2,0.9-0.3
	c0.2-0.2,0.4-0.5,0.4-0.8c0.1-0.2,0.1-0.5,0-0.8c-0.2-0.2-0.4-0.4-0.6-0.6c-0.2-0.2-0.5-0.3-0.8-0.4c-0.5-0.1-1.1-0.2-1.7-0.2
	l-2.4-0.3L184.9,166.5L184.9,166.5L184.9,166.5z M188.2,166.5c-0.3,0-0.6-0.1-0.9-0.1l-1.5-0.2l0.4-3.1l1.5,0.2l0.3,0.1
	c0.1,0,0.3,0,0.4,0.1c0.3,0,0.5,0.1,0.7,0.2c0.3,0.1,0.5,0.3,0.6,0.6c0.2,0.3,0.2,0.7,0.1,1c0,0.2-0.1,0.4-0.2,0.6
	c-0.2,0.2-0.4,0.4-0.6,0.5l-0.4,0.1C188.5,166.5,188.4,166.5,188.2,166.5L188.2,166.5L188.2,166.5z M186.6,165.6l0.8,0.1
	c0.4,0.1,0.8,0.1,1.1,0h0.3c0.1-0.1,0.2-0.2,0.3-0.4c0.1-0.1,0.1-0.2,0.1-0.3c0-0.2,0-0.4-0.1-0.5c-0.1-0.1-0.2-0.2-0.3-0.2
	l-0.2-0.2c-0.1,0-0.2,0-0.3,0l-0.2-0.1c-0.2,0-0.4,0-0.5-0.1l-0.8-0.1L186.6,165.6L186.6,165.6L186.6,165.6z M178.2,166.1l-2.3-0.4
	l1.6-8.1l2.3,0.4L178.2,166.1L178.2,166.1L178.2,166.1z M176.7,165.2l1,0.1l1.3-6.8l-1-0.2L176.7,165.2L176.7,165.2L176.7,165.2z
	 M171.8,164.9l-2.9-0.8l-2.3-3.6l-0.7,3.1l-2.2-0.6l1.9-8l2.7,0.6c0.4,0.1,0.8,0.2,1,0.3l0.5,0.1c0.4,0.2,0.7,0.4,1,0.7
	c0.3,0.2,0.5,0.5,0.6,0.8l0.1,0.2c0.1,0.4,0.1,0.8,0,1.1c-0.1,0.6-0.5,1.2-1.1,1.5c-0.4,0.2-0.9,0.3-1.4,0.3L171.8,164.9
	L171.8,164.9L171.8,164.9z M169.4,163.7l1,0.2l-2.6-4l0.7,0.1c0.6,0.1,1.2,0,1.7-0.2c0.4-0.2,0.7-0.6,0.7-1.1c0.1-0.2,0.1-0.5,0-0.7
	c-0.1-0.3-0.3-0.5-0.5-0.7c-0.2-0.2-0.5-0.4-0.8-0.6l-0.5-0.1c-0.3-0.1-0.6-0.2-1-0.3l-2-0.4l-1.6,6.7l0.9,0.3l0.8-3.3h0.5l0.3,0.1
	L169.4,163.7L169.4,163.7L169.4,163.7z M234.9,163.8c-0.6,0-1.1-0.1-1.6-0.2c-0.9-0.5-1.5-1.3-1.8-2.3l-1.1-5l2.2-0.5l1.1,4.8
	c0.1,0.5,0.5,0.9,0.9,1.2c0.6,0.2,1.2,0.2,1.7,0c0.6-0.1,1.2-0.4,1.6-0.8c0.3-0.4,0.4-0.9,0.3-1.4l-1.2-4.7l2.4-0.6l1.1,4.9
	c0.3,1,0,2.1-0.6,2.9c-0.9,0.8-2,1.3-3.1,1.6C236.2,163.8,235.6,163.8,234.9,163.8L234.9,163.8L234.9,163.8z M231.2,156.8l1,4.3
	c0.2,0.8,0.6,1.5,1.3,1.9c1,0.3,2.1,0.3,3.1,0c1-0.2,2-0.7,2.8-1.4c0.5-0.7,0.7-1.5,0.4-2.3l-0.9-4.2l-1.1,0.3l1,4.1
	c0.1,0.7,0,1.4-0.4,1.9c-0.5,0.6-1.2,0.9-2,1.1c-0.7,0.2-1.5,0.2-2.2-0.1c-0.6-0.3-1.1-0.9-1.2-1.6l-0.9-4.2L231.2,156.8
	L231.2,156.8L231.2,156.8z M188.4,163.1c-0.3,0-0.7,0-1.1,0h-1l0.4-2.9l1,0.1c0.6,0,1.3,0.2,1.9,0.5c0.3,0.3,0.5,0.8,0.4,1.3
	c0,0.5-0.4,0.9-0.9,1C188.8,163.1,188.5,163.1,188.4,163.1L188.4,163.1L188.4,163.1z M187,162.3h0.2c0.5,0.1,1.1,0.1,1.6,0
	c0.2,0,0.4-0.2,0.4-0.4c0-0.3-0.1-0.6-0.2-0.8c-0.2,0-0.8-0.2-1.5-0.3h-0.4L187,162.3L187,162.3L187,162.3z M107.2,163l-2.8-7.9
	l6-2.2l0.7,1.7l-4,1.4l0.4,1.2l4-1.4l0.6,1.6l-3.8,1.5l0.5,1.7l3.9-1.4l0.7,1.6L107.2,163L107.2,163L107.2,163z M105.2,155.6
	l2.4,6.6l4.9-1.8l-0.2-0.4l-3.9,1.4l-1-2.9l3.8-1.5l-0.1-0.3l-3.9,1.3l-0.9-2.4l3.9-1.4l-0.2-0.4L105.2,155.6L105.2,155.6
	L105.2,155.6z M288.6,161.4l-2.1-0.8l-0.2-4.1l0,0l-4.1,3.6l-1.7-5.2c0,0-0.1-0.1-0.1-0.1l-2.2,3.6l-2.1-0.5l5-8.1l1.9,6.1
	c0.1,0.2,0.1,0.3,0.1,0.5l0,0l0.3-0.2c0-0.1,0.1-0.2,0.1-0.2l4.7-4.3L288.6,161.4L288.6,161.4L288.6,161.4z M287.1,160.2l0.8,0.3
	l-0.3-7.1l-3.6,3.3c0,0.1-0.1,0.2-0.2,0.3c-0.2,0.2-0.5,0.4-0.6,0.6l-0.6,0.9v-1.1c0-0.2,0-0.4-0.1-0.6l0.2-0.5l-0.3,0.1l-0.1-0.3
	l-1.5-4.6l-3.7,6l0.8,0.2l1.9-3.1l0.1-0.2l0.2-0.3c0-0.1,0.1-0.3,0.2-0.4l0.6-0.6v0.8c0.1,0.1,0.1,0.3,0.1,0.4v0.2
	c0,0.1,0,0.2,0.1,0.3l1.4,4.3l3.7-3.4l0.1-0.2l0.6-0.9l0.1,0.9c0,0.2,0,0.4-0.1,0.6L287.1,160.2L287.1,160.2L287.1,160.2z
	 M155.4,161.1c-0.7,0-1.3-0.1-2-0.3c-1.2-0.1-2.3-0.7-3.1-1.5c-0.6-0.8-0.8-1.8-0.6-2.8l1.2-5l2.3,0.6l-1.1,4.8
	c-0.1,0.5-0.1,1,0.2,1.5c0.4,0.4,1,0.7,1.5,0.7c0.6,0.3,1.3,0.3,1.9,0c0.4-0.2,0.7-0.6,0.8-1.1l1.1-4.9l2.3,0.6l-1.1,5
	c-0.2,1-0.9,1.8-1.8,2.2C156.5,161,155.9,161.1,155.4,161.1L155.4,161.1L155.4,161.1z M151.4,152.3l-1,4.3c-0.2,0.8,0,1.6,0.5,2.2
	c0.7,0.7,1.7,1.2,2.7,1.4c1,0.3,2.1,0.3,3.2,0c0.7-0.3,1.2-1,1.4-1.8l1-4.3l-1-0.3l-1,4.2c-0.1,0.7-0.5,1.3-1.2,1.5
	c-0.7,0.3-1.5,0.4-2.3,0.1c-0.8-0.1-1.5-0.4-2-1c-0.3-0.6-0.4-1.3-0.3-2l1-4.1L151.4,152.3L151.4,152.3L151.4,152.3z M246.9,161
	l-2-8.7l8.1,3.4c0.2,0.1,0.4,0.2,0.6,0.3c0,0,0.1,0,0.1,0l-1-4.8l2.1-0.5l2,8.6l-8.3-3.3c-0.2-0.1-0.4-0.1-0.6-0.2l1.1,4.7
	L246.9,161L246.9,161L246.9,161z M245.9,153.4l1.6,6.8l0.8-0.2l-1.3-5.4l0.6,0.2c0.2,0,0.4,0.1,0.5,0.3c0.2,0.1,0.5,0.3,0.7,0.3
	l7.1,2.8l-1.6-6.7l-0.8,0.2l1.2,5.3l-0.6-0.2l-0.3-0.1c-0.1,0-0.2-0.1-0.3-0.1l-0.2-0.1c-0.1-0.1-0.2-0.2-0.3-0.2L245.9,153.4
	L245.9,153.4L245.9,153.4z M168.6,159.5c-0.6,0-1.1-0.1-1.7-0.3l-0.6-0.2l0.7-2.7l0.6,0.2c0.6,0,1.3,0.3,1.8,0.7
	c0.4,0.3,0.5,0.8,0.4,1.3c-0.1,0.4-0.4,0.8-0.8,1C168.9,159.5,168.7,159.5,168.6,159.5L168.6,159.5L168.6,159.5z M167.2,158.6
	c0.5,0.2,1.1,0.2,1.7,0.2c0.1-0.1,0.2-0.3,0.3-0.5c0.1-0.2,0-0.4-0.1-0.6c-0.4-0.4-0.9-0.5-1.5-0.5L167.2,158.6L167.2,158.6z
	 M144.5,158.4l-6-1.2l1.6-8.1l2.3,0.5l-1.2,6.4l3.7,0.7L144.5,158.4L144.5,158.4L144.5,158.4z M139.3,156.7l4.7,0.9l0.1-0.5
	l-3.7-0.7l1.2-6.4l-1-0.2L139.3,156.7L139.3,156.7L139.3,156.7z M266,157.3c-0.9,0.1-1.8-0.1-2.6-0.6c-0.9-0.5-1.4-1.5-1.5-2.5
	l-0.5-5.1l2.4-0.1l0.4,5c0,0.5,0.2,0.9,0.5,1.2c0.6,0.3,1.2,0.3,1.9,0.2c0.6,0,1.2-0.2,1.7-0.5c0.3-0.4,0.4-0.9,0.4-1.4l-0.5-5
	l2.4-0.1l0.5,5c0.2,1-0.2,2.1-1,2.8c-0.9,0.7-2.1,1.1-3.3,1.1L266,157.3L266,157.3z M262.3,149.8l0.4,4.4c0,0.8,0.4,1.6,1.1,2
	c0.9,0.5,2,0.7,3.1,0.5c1.1,0,2.1-0.4,2.9-1c0.6-0.5,0.9-1.4,0.7-2.2l-0.4-4.3l-1,0.1l0.5,4.3c0,0.7-0.2,1.3-0.6,1.9
	c-0.6,0.5-1.4,0.8-2.1,0.8c-0.8,0.1-1.5,0-2.2-0.3c-0.6-0.4-0.9-1.1-0.9-1.8l-0.4-4.3L262.3,149.8L262.3,149.8L262.3,149.8z
	 M126.8,157l-0.8-8.4l3.2-0.2c0.5-0.1,0.9-0.1,1.4,0c0.3,0,0.6,0,0.9,0.1c0.4,0.1,0.8,0.4,1.1,0.8c0.3,0.3,0.5,0.8,0.5,1.2
	c0.1,0.4,0,0.8-0.3,1.1c-0.2,0.4-0.5,0.7-0.8,0.9l-0.3,0.2c-0.2,0.1-0.4,0.2-0.6,0.2l-0.3,0.1c-0.5,0.1-1,0.2-1.5,0.2h-0.6l0.3,3.4
	L126.8,157L126.8,157L126.8,157z M126.7,149.3l0.7,7l0.9-0.2l-0.3-3.4l1.3-0.1c0.5,0,0.9-0.1,1.3-0.2l0.3-0.1c0.2,0,0.3-0.1,0.4-0.2
	c0.1-0.1,0.2-0.1,0.4-0.2c0.2-0.2,0.4-0.4,0.5-0.7c0.1-0.2,0.2-0.5,0.2-0.7c0-0.3-0.2-0.7-0.4-0.9c-0.1-0.2-0.3-0.4-0.6-0.5
	c-0.3-0.1-0.7-0.2-1-0.2c-0.4-0.1-0.8-0.1-1.2,0L126.7,149.3L126.7,149.3L126.7,149.3z M128.3,152.3H128l-0.2-2.7l0.8-0.1
	c0.7-0.1,1.4-0.1,2,0.1c0.5,0.2,0.8,0.6,0.8,1.1c0.1,0.5-0.2,0.9-0.6,1.1c-0.5,0.2-1,0.4-1.6,0.4L128.3,152.3L128.3,152.3
	L128.3,152.3z M128.6,151.6l0.4-0.1c0.5,0,0.9-0.2,1.3-0.4c0.2-0.1,0.4-0.3,0.3-0.6c0-0.2-0.2-0.4-0.4-0.5c-0.5-0.2-1.1-0.2-1.7-0.1
	h-0.1L128.6,151.6L128.6,151.6L128.6,151.6z"/>
<polygon class="st4" points="129.8,203.2 137.1,205.4 145.2,207.6 155.4,210.1 161,211.4 167,212.7 173,213.9 179.2,214.9 
	185.3,215.8 191.3,216.5 197.1,217 202,217.1 202,377 198.3,373.8 198,373.7 194.2,370.1 190.1,366.2 186.2,362.3 182.5,358.5 
	178.9,354.7 175.5,350.8 172.2,346.9 169.1,343.1 166.1,339.2 163.2,335.3 160.6,331.5 157.9,327.6 155.5,323.8 153.2,320 
	151.1,316.2 147,308.8 145.2,305 143.5,301.3 140.4,294 138.9,290.4 137.6,286.8 135.3,279.8 133.4,273.1 131.7,266.5 130.4,260 
	129.4,253.9 128.5,247.9 128,242.3 127.7,237 127.4,232 127.4,227.4 127.5,223.1 127.8,219.1 128.4,212.4 129.1,207.4 129.6,204.2 
	"/>
<polygon class="st5" points="148.4,311.1 248.2,211.3 249.2,211 259.2,208.5 267.3,206.4 274.6,204.1 274.8,205.2 275.4,208.3 
	276.1,213.2 276.4,216.3 276.7,219.7 276.9,223.6 276.9,227.9 276.9,228.5 166.4,339 165.6,337.9 162.8,334.1 160.1,330.3 
	157.5,326.6 155.1,322.8 152.8,319.1 150.6,315.3 "/>
<path class="st6" d="M172.5,321.5l1.3-3.5c0.9,0.6,2,0.8,3.1,0.7c1.1-0.2,2.2-0.8,2.9-1.6c0.8-0.7,1.3-1.8,1.3-2.9
	c0-1-0.4-2-1.2-2.6c-1.1-1-2.9-1.1-5.4-0.3c-0.4,0.2-0.7,0.3-0.9,0.4c-3,1-5.2,1.4-6.6,1.3c-1.5-0.1-2.9-0.7-3.9-1.8
	c-1.4-1.3-2.1-3.2-2.1-5.2c0.1-2.1,1.1-4,2.6-5.3c1.1-1.2,2.5-2.1,4-2.5c1.4-0.4,2.8-0.3,4.1,0.3l-1.1,3.5c-0.8-0.1-1.6-0.2-2.4-0.1
	c-0.7,0.2-1.4,0.6-1.9,1.1c-0.7,0.6-1.2,1.5-1.3,2.5c-0.1,0.9,0.3,1.8,1,2.4c1,1,3.2,1,6.1-0.1c0.2-0.1,0.4-0.2,0.6-0.2
	c1.9-0.8,3.9-1.2,6-1.2c1.5,0.1,2.9,0.8,3.9,1.9c1.6,1.5,2.5,3.5,2.5,5.7c-0.1,2.3-1.1,4.4-2.8,6c-1.3,1.4-3.1,2.3-4.9,2.7
	C175.7,322.9,173.9,322.5,172.5,321.5L172.5,321.5L172.5,321.5z"/>
<path class="st6" d="M196.6,301.8c-0.8-1-0.8-2.4,0-3.4c0.4-0.5,1-0.7,1.6-0.6c0.6,0.1,1.2,0.3,1.6,0.7c0.4,0.4,0.7,1,0.7,1.5
	c0,0.7-0.3,1.3-0.8,1.7c-0.4,0.4-1,0.6-1.5,0.6C197.7,302.4,197.1,302.2,196.6,301.8L196.6,301.8L196.6,301.8z"/>
<polygon class="st6" points="212.8,288.3 194.8,270.2 197.7,267.3 213.1,282.7 219.7,276.2 222.3,278.8 "/>
<path class="st6" d="M231.3,267.1c-0.4-0.5-0.6-1.1-0.6-1.7c0-0.6,0.2-1.2,0.6-1.6c0.5-0.4,1.1-0.7,1.7-0.7c0.6,0,1.1,0.3,1.6,0.7
	c0.4,0.4,0.7,1,0.7,1.6c0,0.6-0.2,1.2-0.7,1.7c-0.4,0.4-1,0.6-1.6,0.6C232.4,267.7,231.8,267.5,231.3,267.1L231.3,267.1z"/>
<path class="st6" d="M242.9,236.9l0.3-0.5l0.3-0.8l0.1-0.8l-0.2-0.7l-0.4-0.7l-0.1-0.1V228l0.9,0.4l1.3,1l0.7,0.7l0.4,0.8l0.3,0.9
	l0.3,0.8l0.1,0.9l-0.1,0.8l-0.3,0.9l-0.3,0.8l0.9-0.5l0.9-0.4l1-0.2l1,0.1l1,0.3l1,0.4l1,0.7l1,0.9l1,1.1l0.7,1.3l0.4,1.4l0.2,1.5
	l-0.1,0.6l-0.1,0.8l-0.7,1.5l-0.5,0.8l-0.7,1l-2.2,2.2l-4.6,4.5l-4.6-4.6v-5.8l5.1,5.1l0.9-1l1.4-1.4l0.8-1l0.6-0.9l0.3-0.8l0.1-0.9
	l-0.3-0.9l-0.3-0.9l-0.7-0.7l-1-0.8l-1-0.4l-0.9-0.1l-1.1,0.1l-0.6,0.2l-0.6,0.5l-1.5,1.2l-0.9,0.9l-0.3,0.3v-4.9l0,0L242.9,236.9z
	 M240,240.3l1.1-1.2l1-1l0.8-1l0.1-0.3v4.9l-0.7,0.7l0.7,0.7v5.8l-13.5-13.5l4.6-4.4l1.8-1.6l1.3-0.9l1.1-0.6l1.1-0.3l0.8-0.1h0.8
	l1.4,0.4l0.6,0.3v5.3l-0.4-0.6l-0.8-0.6l-0.7-0.4l-0.7-0.3h-0.8l-0.8,0.3l-0.8,0.5l-1,0.7l-1.1,1l-1.1,1.1L240,240.3L240,240.3
	L240,240.3z"/>
<path class="st6" d="M267.5,230.8c-0.5-0.4-0.7-1-0.7-1.6c0-0.6,0.3-1.1,0.7-1.5c0.4-0.5,1-0.7,1.6-0.7c0.6,0,1.2,0.2,1.5,0.7
	c0.4,0.4,0.7,0.9,0.7,1.5c0,0.6-0.2,1.2-0.7,1.6c-0.4,0.4-0.9,0.7-1.5,0.7C268.6,231.5,268,231.2,267.5,230.8L267.5,230.8z"/>
<path class="st6" d="M204.5,326.7l-0.5,0.2l-2.1,0.3l-1.5,0.3H199l-2.6-0.3l-4.3-0.7l-1.6-0.4l-1.6-0.5l-2.9-1l-3.6-1.5l7.7-7.8
	l20.2-20.2l13.7-13.9l5.8-5.8l5.7-5.7l7.1-7.1l0.8,1.7l1,2.6l0.7,2l0.2,0.6l0.2,0.6l0.3,1l0.3,0.9l0.2,0.7l0.4,2.7l0.3,2.3l0.2,1.6
	l0.1,4.6l-0.4,3.4l-0.1,1.5l-0.3,1.1l-0.4,0.8l-0.5,0.7v1.7l-0.2,1.8l-0.4,1.9l-0.3,1.3l-0.8,1.8l-0.8,1.8l-0.9,1.8l-0.6,1.1
	l-1.1,1.9l-0.9,1.3l-0.9,1.2l-1,1.2l-1,1.1l-2.2,1.8l-2.1,1.5l-2,1.2l-1.3,1.7l-1.7,1.7L225,321l-2.4,1.5l-1.8,0.9l-2,0.8l-2.7,1
	l-2.8,0.8l-2.2,0.5l-2.1,0.3l-2.2,0.1l-1.1-0.1L204.5,326.7z M181.3,244.4c8.1-9.8,26.9-7.8,37.6-3.9
	c-19.5,19.7-39.2,39.1-58.7,58.8c-7.8-18.1-1.4-38.4,12.7-51.3c1.9-1.7,7.7-6.1,10.4-5.8C182.7,243,181.9,243.6,181.3,244.4z"/>
<path class="st7" d="M226.3,146.5l0.1-1l0.2-1l0.1-0.6l-0.1-0.5l-0.1-0.4l-0.4-0.4l-1-1l-0.8-1.3l-0.6-1.3l-0.5-1.4l-0.7-2.8l-0.5-3
	l-1.5-0.7l-1.4-0.6l-0.8-0.5l-0.6-0.6l-1.2-1.4l-2.8,0.4l-1.5,0.2l-1.4-0.2h-0.6l-0.6,0.4l-0.6,0.5l-0.5,0.6l-0.6,0.4l-0.4,0.2
	l-0.4-0.3l-0.4-0.9v-0.5l0.1-0.4l0.4-0.9l0.2-0.6c-0.9-0.3-1.8-0.5-2.8-0.4l-0.5,0.7l-1.4,2.2h-0.5l-1.9-2.9c-1,0-2,0-2.9,0l0.5,0.4
	l0.3,0.4l0.4,0.6l0.2,0.5l0.2,1.4L199,131l-0.3,0.5l-0.9-0.3l-0.5-0.4l-0.5-0.4l-0.5-0.4l-1.2-0.7l-0.7-0.2l-0.7,0.2l-0.8,0.4
	L192,130h-0.8l-1-0.2l-0.9-0.1l-1,0.1l-1.1,0.3l-1.1,0.8l-0.5,0.2l-0.5,0.1h-1.3l-1.6-0.3l-0.4,0.9l-0.2,0.7l-0.4,1.8l-1,2.2l-1,2
	l-0.8,1.9l-0.3,0.9l-0.1,0.9l-0.3,1l-0.2,1l0.1,0.4l0.2,0.5l0.3,0.4l0.6,0.5c7.8-1.4,15.7-2.2,23.6-2.2
	C210.3,144,218.4,144.8,226.3,146.5z M124.2,193.2l-1.1-0.4c-5.1,19.2-4.8,42.8-1.8,62.2c8.5,53.5,39.8,97.6,80.8,131.7
	c48.1-39.8,82.5-93.6,83-157.4c0.1-12.1-0.8-24.8-4-36.5l-1.1,0.3c-22.7,7.1-54.6,15-77.9,15S146.9,200.2,124.2,193.2z M161,347.7
	l-0.8,1.7c1.1,0.5,2.2,1,3.4,1.5C162.7,349.9,161.8,348.8,161,347.7z M151.4,334.7l-4.9,7.3c3.7,2.4,7.6,4.6,11.6,6.5l1.3-2.8
	C156.6,342.1,154,338.5,151.4,334.7L151.4,334.7z M142.6,320.6l-10,10.4c3.7,3.5,7.8,6.8,12,9.7l5.4-8.1
	C147.4,328.7,144.9,324.7,142.6,320.6L142.6,320.6z M133.9,303.6l-15.7,10.5c3.7,5.5,8,10.6,12.7,15.2l10.5-10.9
	C138.7,313.6,136.2,308.7,133.9,303.6L133.9,303.6z M127.8,288.7l-19.2,8c2.3,5.4,5.1,10.5,8.3,15.5l16.1-10.7
	C131,297.3,129.3,293.1,127.8,288.7L127.8,288.7z M123.4,274.6l-20.6,4.4c1.2,5.3,2.8,10.5,4.8,15.6l19.4-8
	C125.7,282.6,124.4,278.7,123.4,274.6L123.4,274.6z M119.7,257.8h-19.3c0.1,6.3,0.8,12.7,2,18.9l20.5-4.4
	C121.5,267.6,120.5,262.7,119.7,257.8L119.7,257.8z M117.6,241l-15.6-3.1c-1.1,5.8-1.6,11.6-1.7,17.5h18.9
	C118.5,250.7,118,245.9,117.6,241z M117.1,222.7l-9.5-4c-2.2,5.5-3.9,11.1-5.1,16.9l14.9,3c-0.2-3.1-0.3-6.1-0.3-9.3
	C117.1,227.2,117.1,225,117.1,222.7L117.1,222.7z M118.9,202.3l-2-1.4c-3.2,4.9-5.9,10-8.3,15.4l8.6,3.6
	C117.5,214,118,208.1,118.9,202.3L118.9,202.3z M120.1,196.3c-0.7,0.8-1.3,1.7-1.9,2.6l1.2,0.8C119.6,198.6,119.8,197.5,120.1,196.3
	L120.1,196.3z M139.3,195.3l-9.9-9.9c-1.7,1.8-3.4,3.6-5,5.5l0.6,0.2C129.3,192.5,134.2,193.9,139.3,195.3L139.3,195.3z M164,201.3
	l-19.3-28.9c-4.9,3.4-9.5,7.2-13.8,11.3l12.8,12.8C150.3,198.3,157.1,199.9,164,201.3L164,201.3z M257.4,197.4l14.5-15.1
	c-3.7-3.5-7.8-6.8-12-9.7l-19.2,28.7C246.2,200.1,251.9,198.9,257.4,197.4L257.4,197.4z M280,191c-2-2.5-4.2-4.8-6.5-7.1l-11.9,12.4
	c6.3-1.7,12.4-3.4,17.9-5.2L280,191z M285,200l1.3-0.8c-0.6-0.9-1.3-1.9-2-2.8C284.6,197.6,284.8,198.8,285,200z M287.3,220.2
	l8.5-3.5c-2.3-5.4-5.1-10.6-8.3-15.5l-2.1,1.4C286.4,208.4,287.1,214.3,287.3,220.2L287.3,220.2z M287.1,237.3l14.4-3.1
	c-1.2-5.3-2.8-10.5-4.8-15.6l-9.3,3.9C287.6,227.5,287.5,232.4,287.1,237.3L287.1,237.3z M285.1,255.5h18.8
	c-0.1-6.3-0.7-12.7-2-18.9l-15,3.2C286.7,245,286,250.3,285.1,255.5L285.1,255.5z M282,271.2l20.3,4c1.1-5.8,1.7-11.6,1.7-17.5
	h-19.1C284.1,262.3,283.1,266.8,282,271.2z M277.5,286.6l19.2,8c2.2-5.5,3.9-11.3,5.2-17.1l-20.4-4c-1.1,4.1-2.3,8.2-3.6,12.2
	L277.5,286.6z M271.6,301.7l15.9,10.6c3.2-5,6-10.2,8.4-15.6l-19.2-7.7C275.1,293.3,273.4,297.6,271.6,301.7L271.6,301.7z
	 M264.1,316.9l10.9,10.9c4.1-4.2,7.8-8.7,11.1-13.5l-15.5-10.4C268.6,308.3,266.4,312.7,264.1,316.9L264.1,316.9z M254.4,332.9
	l5.2,7.9c4.9-3.4,9.5-7.2,13.8-11.3L262.9,319C260.3,323.8,257.5,328.4,254.4,332.9L254.4,332.9z M242,349.8l0.3,0.6
	c5.4-2.3,10.6-5.1,15.5-8.3L253,335C249.6,340.1,245.9,345,242,349.8z M144.8,169.7c-2.9-0.6-5.6-1.3-8.2-1.9
	c-49,36.3-59.4,105.5-23,154.5c15,20.3,36.6,34.8,61,41.2c-2.8-3-5.5-6-8.1-9c-54-19.7-81.9-79.5-62.1-133.5
	c4-10.9,9.8-21.1,17.1-30.2l0.2-0.7C128.4,182.3,136.1,175.4,144.8,169.7z M166.9,174.2c-6.5-1.2-12.9-2.5-18.9-3.8l-1.3,0.8
	l20.5,30.8c4.1,0.8,8.1,1.5,12.1,2.1L166.9,174.2z M185.3,177.3c-5-0.7-10.4-1.6-15.8-2.6l12.3,29.8c3.1,0.4,6.1,0.7,9,1
	L185.3,177.3z M201,179.1c-3.9-0.3-8.4-0.8-13.3-1.5l5.6,28.1c2.7,0.2,5.3,0.3,7.8,0.3V179.1L201,179.1z M216.8,177.4
	c-4.9,0.7-9.5,1.3-13.5,1.6v27.1c2.5-0.1,5.2-0.2,7.9-0.4L216.8,177.4z M239.6,173.6c-6.9,1.3-13.9,2.6-20.4,3.5l-5.7,28.5
	c3.8-0.4,7.8-0.8,11.8-1.5L239.6,173.6z M256,170.2c-4.4,1-8.9,1.9-13.6,2.8l-14.3,30.7c3.1-0.5,6.1-1.1,9.2-1.7l20.5-30.6
	L256,170.2z M267.5,167.6c-2.8,0.7-5.5,1.3-8.4,1.9c8.7,5.7,16.6,12.7,23.2,20.8l0.7,0.7c36.3,44.6,29.5,110.2-15.1,146.5
	c-8.9,7.2-18.9,12.9-29.7,16.9c-2.6,3.1-5.4,6.1-8.1,9.1c59-15.5,94.3-75.9,78.9-134.9C302.6,204.1,287.9,182.5,267.5,167.6
	L267.5,167.6z M310.6,185.5c-13.9-8.4-29.9-16.8-39.5-17.9c49.2,38.2,58.1,109,19.9,158.2c-16,20.6-38.5,35-63.9,40.8
	c-6.9,7.1-14.2,13.9-21.9,20.4c72-2.1,128.6-62.2,126.4-134.2C331,228.8,323.7,205.5,310.6,185.5L310.6,185.5z M225.6,147.5
	c10.6-2.1,21-4.8,31.5-7.5l1.6-0.4c-4.2-2.1-8.5-3.9-12.8-5.5l-0.1,0.7l-0.8,0.2l-0.6-0.1l-0.4-0.4l-0.4-0.5l-0.6-0.9
	c-2.4-0.8-4.9-1.6-7.4-2.3l-0.8-0.1l-0.8,0.1l0.4,0.5l0.4,0.6l1.4,1.1l1.2,1.2l0.4,0.6l0.2,0.6l0.7,0.2l0.4,0.2l0.5,0.4l0.3,0.4
	l0.4,1.1l0.4,1.3l0.1,0.9l-0.1,0.9l-0.3,0.7l-0.3,0.7l-0.6,0.2h-0.5l-0.5-0.3l-0.5-0.3l-0.2-0.9l-0.4-0.8l-0.7-0.7l-0.7-0.6
	l-1.7-0.6l-1.7-0.9l-1.4-1.1l-1.4-1.3l-0.2,1.3v2.8l-0.2,1.4l0.4,0.6l0.1,1.1l-0.1,1.3l-0.3,1.2l-0.9,1.6l-0.3,0.4l-0.5,0.4
	L225.6,147.5z M181,148.2c6.7,1.2,13.6,2,20.4,2.4c7.1-0.4,14.2-1.3,21.2-2.6C208.8,145.5,194.7,145.5,181,148.2L181,148.2z
	 M166.6,145.3c2.8,0.6,5.8,1.3,8.8,1.9l1.9-0.4l-1.4-0.4l-0.4-0.3l-0.4-0.4l-0.3-0.4l-0.3-0.5l-0.4-0.8l0-0.9v-1.8l-0.1-1.8
	l-0.2-0.7l-0.3-0.9l-0.8,0.6l-0.4,0.4l-1.1,0.7l-1,0.6l-0.5,0.3l-0.4,0.5l-0.9,1.1l-0.8,1.2l-0.6,1.2L166.6,145.3z M144,139.6
	c6.2,1.4,14.5,3.8,16.5,4.2l4.4,1.1l-0.2-0.8l-0.1-1.2l-0.1-1.2l0.2-1.2l0.2-1.2l0.4-1.1l0.6-0.9l1-0.9l0.4-1.6l0.7-1.4l-0.8-0.2
	l-0.8,0.1l-1.5,0.2h-1l-0.9-0.2h-0.5l-0.4,0.1l-0.8,0.6l-0.6,0.3l-0.5,0.5l-0.7,1.2l-0.4,0.5l-0.5,0.3l-0.5,0.1l-0.6-0.4v-1.9
	l0.1-0.7C152.9,135.6,148.4,137.5,144,139.6L144,139.6z M87.8,188.1c-8.5,5.3-15.8,10.2-19.7,12.9l2.5-19.3l-23.2-2
	c0,0,15.1-10.2,32.2-19.3s38.9-18.9,57.9-22c0.9,0,1.9,0,2.8,0.2c5.8-3,11.9-5.6,18.1-7.7l0.8-0.8l0.9-0.5l0.7-0.4l0.8-0.4l1.4-0.9
	l1.4-0.8l0.8-0.3l0.9-0.2l4.7-1.1l2.2-0.7l2.2-0.9l0.7-0.8l0.8-0.9l1.4-1.7l1-1.9l0.9-2.1l-0.6-0.8l-0.5-1l-0.6-2.1l-0.4,0.2
	l-0.7,0.9l-0.6,0.3h-0.4l-1-1.3l-0.3-1.2l-0.4-2.6l-0.2-3.3v-3.3l-0.4-0.1l-0.6,0.4l-0.7,0.1l-0.7-0.6l-0.5-0.6l-0.1-0.8v-1l0.2-1.7
	l0.4-1.6l0.3-1.2v-0.5l-0.1-0.6l-0.6,0.4l-0.7,0.5l-0.7,0.3h-0.9l-0.1-0.8v-0.9l0.4-1.6l0.5-1.6l0.4-1.6h-4.2l-1.3-0.2l-0.6-0.4
	l-0.4-0.2l-0.6,0.2l-1.1,1.1l-0.3,0.4l-0.4,0.2l-0.9,0.5l-0.9,0.3l-1,0.3l-0.9,0.2l-1-0.1l-1-0.2l-0.9-0.3l-0.8-0.6l-0.5-0.4
	l-0.2-0.4l-0.7-1.1l-0.5,0.2l-0.3,0.5l-0.7,1.1l-1.6,1.3l-0.8,0.5l-0.9,0.4l-0.9,0.3l-0.9,0.2h-1l-1.1-0.2l-0.5-0.4l-0.9-1.3
	l-0.6-0.4l-0.4,0.1l-0.6,0.3l-0.8,0.3l-0.8,0.2h-0.7l-0.9-0.1l-1.5-0.4l-1.5-0.5l-0.7-0.6l-0.7,0.1l-0.7,0.4l-0.4,0.2l-1.3,0.2h-0.8
	l-1.6-0.2l-1.5-0.6L126,89l-0.6-0.5l-0.8,0.3l-0.8,0.1H122l-1-0.3l-0.8-0.3l-0.7-0.5l-0.6-0.5l-1,0.1H117l-0.8-0.3l-0.9-0.3
	l-0.8-0.4l-0.7-0.5l-0.8-0.7l-0.6-0.7l-0.3-0.8l-0.2-0.9l-0.1-0.4l-0.4-0.6l-0.4-0.2h-0.7l-0.7-0.2l-1.1-0.5l-1.1-0.8l-0.9-1.1
	l-0.3-0.8l-0.3-0.9l-0.4-0.6l-0.8-0.2l-1.4-0.4l-1.3-0.4l-2.5-1l-2.6-0.3l-2.6-0.4l-2.4-0.5l-2.4-0.8L87,72l-2.3-1l-2.1-1.4l-2-1.5
	l-2.3-0.2l-2.7-0.5l-2.3-0.5l-1.2-0.3l-2.9-1l-2.8-1.4l-3.2-1.6l-3.1-2l-2.9-2.1l-1.3-1.2L54.6,56l-0.8-1.2l-1-1.1l-0.4-0.4
	l-0.6-0.4l-0.6-0.3l-0.8-0.2l-1.9-0.8l-1.9-0.9l-1.8-1L43,48.3l-1.8-1.2l-1.7-1.5L38,44.3l-1.4-1.6l-0.2-0.5l-0.9-0.4l-0.5-0.2
	l-3.8-1.7l-1.9-1l-1.8-1.2l-1.3-1.1L25,35.3l-1.1-1.4L23,32.5l-3.8-1.2L15.6,30l-1.7-0.8l-1.7-1l-1.6-1.1l-1.4-1.3l-1.5-1.5
	l-1.4-1.5L5.6,22L5,21.1l-0.3-1L4.6,19l0.5-0.3l0.5,0.1L6.2,19l0.6-0.1l5.8-0.3l2.5-0.1h6.8l4,0.1l9,0.2h16.9l7.7-0.3l7.8-0.5
	l11.9-0.1L91,17.8l11.7,0.4l5.8,0.3l5.8,0.5l6.6,0.6l6.6,0.6l3.2,0.5l3.2,0.7l3.1,0.9l2.9,1.1l2.9,1.6l2.8,1.9l2.6,2.2l1.3,1.2
	l1.2,1.3l0.6,0.7l0.3,0.8l0.6,0.8l0.4,0.8l0.9,1.8l0.6,0.9l0.6,0.7l0.8,0.5l1,0.2l1.6,0.3l1.4,0.6l1.2,0.6l1.1,1l1,0.9l0.9,1
	l1.6,2.4l1.6,2.5l1.7,2.3l1,1l1,0.9l1.2,0.9l1.4,0.7l1.2,0.3h1.2l1.1-0.3l1.1-0.4l1-0.6l1-0.8l1.7-1.6l0.9-1.4l0.7-1.3l-0.4-0.4
	l-1.4,0.2h-1.4l-0.8-0.1l-0.6-0.2l-0.6-0.3l-0.6-0.4l-0.1-0.8l0.1-0.6l0.5-0.4l0.6-0.5l1.2-0.7l0.5-0.5l0.4-0.6l0.7-1l0.6-1.1
	l0.3-0.5l0.3-0.6v-0.6l-0.2-0.6l-1.4,0.2l-1.3-0.2l-1.3-0.1l-1.4-0.2l-0.4-0.6l-0.1-0.8l0.5-0.2l0.5-0.4l0.4-0.5l0.2-0.5l0.4-1.2
	l0.3-1.1l-0.4-0.1l-0.5,0.1l-1,0.4l-0.7,0.1l-0.8,0.2l-0.7,0.1l-0.7-0.3v-1l-0.1-1.1l-0.2-1l-0.4-0.9l-0.4-0.9l-0.6-0.8l-0.8-0.8
	l-0.9-0.7l-1.4-0.6l-1.4-0.6l-1.5-0.6l-1.4-0.7l-1.3-1l-1.2-1l-0.4-0.5l-0.6-0.7l-0.3-0.7l-0.3-0.8l0.1-3.1l0.5-0.3h0.4l0.7,0.5
	l0.6,0.7l0.3,0.4l1.4,0.7l1.1,0.5L167,18l0.6,0.1l0.5-0.2l0.6-0.2l0.4-0.6l0.4-0.6l0.1-0.6l-0.1-0.8l-0.2-0.6L169,14l-0.3-0.5
	l-0.5-0.3l-1.1-0.7l-1.2-0.5l-1.5-0.4H163l-1.3,0.3l-1.3,0.4l-2.5,0.9l-2.4,1.1l-0.4-0.5l-0.1-0.6l0.2-1.2l0.4-1.2l0.6-1.2l0.8-1
	l0.9-1.1l1-0.9l1.1-0.8l1.2-0.6l1.2-0.4l2.8-0.3h1.4l1.5,0.1l1.4,0.1l1.4,0.4l1.3,0.5l1.1,0.7l1.6-0.6l1.6-0.5l1.8-0.2l1.9,0.1
	l1.4,0.3l1.5,0.3l2.8,1.1l2.8,1.2l2.8,1.2l2.8,1.2l1.4,0.5l1.4,0.3l1.4,0.4l1.5,0.1h1.6l1.6-0.1l0.7-0.1l0.7-0.5l0.6-0.2l0.7,0.3
	l-0.1,0.5l-0.1,0.4l-0.5,0.9l-0.7,0.7l-0.6,0.8l1.9,0.5l2.1,0.4l1.9,0.7l1,0.4l0.9,0.6v1l-2.2,0.2l-1,0.2l-0.9,0.5l2,0.8l2.1,0.6
	l1,0.3l0.9,0.5l0.9,0.5l0.6,0.7V23h-2.3l-1.1,0.4l-0.5,0.3l-0.4,0.5l1.1,0.5l1.2,0.3l2.5,0.7l2.4,0.7l1.1,0.4l1.1,0.6l1.3,1l1.1,1
	l1.1,1.2l1.1,1.5l0.3,0.7l0.3,0.7l0.1,0.7l-0.3,0.8h-1l-1.1-0.2l-0.8,0.1l-0.4,0.3l0.8,0.8l1,0.8l1,0.8l0.9,1.1l1.6,2l1.3,2.2
	l0.1,0.7l0.3,0.6v0.7l-0.1,0.5l-0.8,0.2l-0.5-0.2l-0.8-0.5h-0.6l-0.6-0.1h-0.5l-0.4,0.4l1.9,1.5l1.9,1.8l1.6,2l1.4,2l1,0.1l1.1-0.1
	l0.9-0.2l1-0.3l1-0.3l0.9-0.6l0.8-0.7l0.8-0.8l0.1-1.2l0.3-1.1l0.8-2.2l1.2-2.1l1.5-1.9l1.6-1.6l1.9-1.5l2-1.2l1-0.3l0.9-0.4
	l1.4-2.3l1.7-2.3l1.7-2.1L257,27l2.2-1.7l2.3-1.4l2.6-1.1l1.2-0.4l1.4-0.3l2.6-1l2.5-0.8l5.3-1.4l2.3-0.3l2.4-0.4l4.8-0.4l4.8-0.2
	h5.1l6.3-0.2h6.4l12.9,0.1h13.1l6.5-0.1l6.4-0.2l5.1-0.1l5.1,0.1l10.3,0.1l10.3,0.2l10.5-0.2l1.5-0.3l1.5-0.2h0.7l0.7,0.1l0.7,0.2
	l0.7,0.4l-0.2,0.8l-0.3,0.9l-0.5,0.7l-0.6,0.7l-1.4,1.3l-1.3,1.1l-1.2,1l-1.4,0.9l-1.4,0.8l-1.4,0.7l-2.8,1.1l-2.9,1l-2.4,2.7
	l-2.5,2.7l-1.4,1.2l-1.4,1l-1.5,1l-1.6,0.6l-0.6,1.2l-0.7,1.1l-1.7,2.1l-1.8,1.9l-2.1,1.6l-2.1,1.5l-2.2,1.4l-2.3,1.2l-2.3,1l-2,2.5
	l-2.2,2.2l-2.3,1.9l-2.5,1.7l-2.6,1.6l-2.6,1.3l-2.6,1.2l-2.8,1l-4.7,1.3l-2.5,0.6l-2.5,0.5l-1,1.4l-1.2,1.2l-1.4,1.1L319,71
	l-1.6,0.8l-1.6,0.7l-3.1,1.2l-2.1,0.3l-2.3,0.3l-4.5,0.3l-1.4,1.1l-1.4,0.9l-1.5,0.7l-1.5,0.6l-0.7,1.5l-0.4,0.8l-0.5,0.6l-2,0.9
	v1.3l-0.3,1.3l-0.6,1.1l-0.8,0.9l-0.3,0.4l-0.6,0.2l-1,0.3h-2.2l-0.7,0.8l-0.8,0.6l-0.8,0.3l-0.9,0.3l-1,0.1l-0.9-0.1l-1.9-0.2
	l-0.6-0.5l-0.6,0.2l-0.5,0.4l-0.6,0.3l-1,0.3l-1,0.1l-0.9,0.1l-0.9-0.1l-1-0.2l-0.9-0.4l-0.8-0.4l-0.7-0.5l-0.7,0.8l-0.8,0.7
	l-0.9,0.6l-0.9,0.5l-1,0.3l-1,0.2h-1l-1-0.3l-0.6-0.1l-0.6,0.8l-0.8,0.5l-0.9,0.4l-0.9,0.3l-1,0.2h-1l-1.9-0.1l-1.2-0.4l-0.9-0.6
	l-0.8-0.8l-0.7-0.8l-0.4,0.2l-0.6,0.8l-1,1l-0.8,0.5l-0.8,0.4l-0.9,0.3l-0.9,0.2h-0.9l-1-0.1l-0.9-0.3L245,93l-0.5-0.4l-0.6-0.8
	l-1.2,0.6l-0.6,0.3l-0.5,0.3l0.1,1.4V96l-0.1,0.7l-0.2,0.7l-0.3,0.6l-0.4,0.5l-0.3-0.6l-0.3-0.5l-0.5-0.5l-0.6-0.4l-1.1-0.8
	l-0.8-0.3l1,1.2l0.6,1.2l0.3,0.6l0.3,0.7l0.1,1.3l-0.2,1.4l-0.4,1.5l-0.4,1.4l-0.9,2.3l-0.4,0.7l-1.2-1l-1-1.1l-0.3,2.8l-0.4,2.7
	l-0.3,1.3l-0.5,1.3l-0.5,1.2l-0.7,1.1h-0.7l-0.6-0.3V115l-0.1-0.7l-0.3-0.6l-0.4-0.4l-1.2,2.1l-0.8,1.1l-0.8,0.8l0.1,0.5l0.1,0.6
	l0.6,1l1.5,2l4.5,2.3l2.3,1.1l1.2,0.3l1.3,0.2l1,0.4l0.9,0.6l0.7,0.8l0.8,0.9l1,0.5l1,0.8l0.8,0.9l0.6,1c5.8,2.3,11.3,4.7,16.6,7.5
	c1-0.2,2-0.3,3-0.2c28.6,4.5,65.9,24.9,90.1,41.3l-23.3,2l2.4,19.3c-3.9-2.7-11.1-7.6-19.6-12.9c37.7,62.8,17.4,144.3-45.3,182
	c-20.3,12.2-43.5,18.7-67.2,19h-1.1c-73.2,0-132.6-59.3-132.6-132.5C68.7,232.6,75.3,208.9,87.8,188.1L87.8,188.1z M133.3,167.4
	c-9.3,0.2-26.3,9.1-41.1,18c-39.3,60.3-22.3,141.1,38,180.4c20.5,13.4,44.4,20.7,68.8,21.1c-7.6-6.4-14.9-13.3-21.8-20.4
	c-60.7-13.8-98.7-74.2-84.9-134.9C98.2,206.1,112.7,183.4,133.3,167.4L133.3,167.4z M136.1,165.4c0,0,40.6,9.8,65.3,11.5
	c24.8-1.7,65.4-11.5,65.4-11.5c14.1-2.5,51.8,22,65,30.9l-2.1-16.5l19.1-1.6c-23-14.9-57.2-33-83.6-37.2c-2.1-0.3-19.9,4.6-22.3,5.2
	c-13.4,3.3-27.6,6.2-41.5,6.9c-19.3-1-37.7-6-56.3-10.7c-4-1-6.5-1.5-7.2-1.4c-26.4,4.2-60.6,22.4-83.6,37.2l19,1.6l-2.1,16.5
	C84.3,187.3,122.1,162.8,136.1,165.4L136.1,165.4z M225.1,281.4c4.3,5.2,8.3,15.3,8.9,21.6c0,3.6-0.6,7.2-1.8,10.6
	c2.9-0.7,7.4-7.1,8.8-9.9l1.1-2.2c4.5-8.9,2.7-15.9-1.8-24.3c-1.2-2.3-2.8-4.3-4.7-6.1L225.1,281.4z M192.1,314.4c0.5,0,1,0,1.4,0
	h0.6c5.9-0.6,11.2-2.4,15.3-6.9c1.4-1.5,2.8-3.8,2.5-6c-0.4-1.8-1.1-3.4-2-5L192.1,314.4z M181.9,322.5l6.4-6.5
	c0.3-0.4,0.7-0.8,1.1-1.1l20-19.9l13.7-13.7c0.1-0.3,0.4-0.6,0.7-0.7l52.2-52.2v-0.6c0-7.5-0.7-15-2.1-22.3l-0.8,0.3l-2.3,0.7
	l-3,0.9l-3.8,1l-4.4,1.2l-4.9,1.3c-2.1,0.5-4.2,1.1-6.3,1.5L149.6,311c5,9.3,10.8,18.2,17.2,26.5l14.4-14.3L181.9,322.5z
	 M130.8,203.4l1,0.3l2.3,0.7l3.1,0.9l3.7,1l4.3,1.2l4.8,1.2c16.4,4.1,35.1,8.1,52,8.1s35.6-4,52.1-8.1l4.8-1.2l4.3-1.2l3.8-1l3-0.9
	l2.3-0.7l1-0.3l2.1-0.6l0.5,2.2c5.4,25.6,0.8,57.5-7.9,81.7c-13,36.2-36.6,66-65.9,90.5c-42.6-35.8-72.8-83.2-75.7-139.7
	c-0.6-10.7-0.3-21.9,1.9-32.5l0.5-2.2L130.8,203.4z M198.4,260c-1.9-6.1,0.4-12.6,4.7-16.9c1.4-1.3,3-2.4,4.7-3.3
	c0.6-0.3,1.2-0.5,1.8-0.6l-0.8-0.4c-1.1-0.3-2.3-0.4-3.4-0.4c-4.8,0-8.9-0.1-13.7,1c-11.5,2.8-18.3,16.6-18.3,27.7
	c-0.2,5.5,0.4,10.9,1.7,16.2L198.4,260z M217.5,240.9c-12.2-2.9-18.6,6.3-17.7,17.7L217.5,240.9z M183.5,241.4
	c9.2-6.7,24.7-5.5,35.2-1.8l26.7-26.7c-14.2,3.3-29.2,6-43.4,6c-17.3,0-35.9-4-52.6-8.2l-4.9-1.3l-4.3-1.2l-3.8-1l-3.1-0.9l-2.3-0.7
	l-0.8-0.2c-5.1,25.2-0.5,56.7,8,80.5c2.9,8.1,6.4,16,10.4,23.6l10.5-10.5c-8.3-17.3-0.1-42.3,15-53.2
	C176.3,244.5,180.9,240.9,183.5,241.4L183.5,241.4z M166.2,292.1c-2.8-1.3-5.5-4.7-7-7c-0.5-0.8-1-1.7-1.4-2.6v1.9
	c0,1.3,0.1,2.6,0.4,3.9c0.4,2.9,1,6.9,2.3,9.7L166.2,292.1z M173.8,284.5c-4.5-12.3-2.2-32,7.5-41.2c-13.1,5.3-29.9,29.5-19.6,42.7
	c1.1,1.5,3.8,4.2,5.5,4.9L173.8,284.5z M183.7,322.9c2.4,0.7,6.2,2.2,7.2,2.5c3.1,1,8.3,1.6,11.4,1c2.5-0.6,5.1-1.1,7.1-3.1
	c3.8-4.1,4-12,3.4-17.3c-5.7,7.7-13.3,10.3-22.3,10.1L183.7,322.9z M243.6,262.9c0.5,1,0.9,2,1.2,3c2.6,6.3,4,15,2.9,21.8
	c-0.3,1.5-1.5,3.8-1.5,4.6c-0.4,3.8-0.6,6-2.4,9.5l-1.1,2.2c-2,4-4.8,7.6-8.4,10.3c-1,0.8-2.3,1.3-3.3,2.2c-0.8,0.8-1.6,1.6-2.2,2.5
	c-1.9,1.9-4,3.5-6.3,4.7c-4.5,2.2-9.2,3.6-14.2,4.2c-1.4,0.1-2.9-0.3-4.1-0.3c-1.1,0.1-2.2,0.6-3.3,0.7c-4.9,0.4-13.4-1.8-18.4-4.2
	l-14.8,14.8c10.2,13,21.7,24.9,34.3,35.5c43.2-36.4,73.7-86.4,73.9-143.9L243.6,262.9z M236.7,269.8c0.6,0.7,1.4,1.6,1.7,2
	c3.8,4.8,6.9,10.1,7.6,16.4c0.3-1.4,0.4-2.7,0.3-4.1c0.5-5.4-1.1-15-3.8-20L236.7,269.8z M211.3,295.3c0.9,2.1,1.7,4.2,2.3,6.4
	c1.9,6.9,1.8,21.2-5.8,24.7c2.9,0.2,10.1-2.3,12.6-3.5c7.1-3.1,10.7-7.9,11.6-15.5c0.3-1.4,0.4-2.8,0.4-4.2c-0.4-2.6-1-5.2-1.9-7.7
	c-0.4-1.8-1.1-3.5-1.8-5.2c-1.4-2.7-3.1-5.2-4.9-7.7L211.3,295.3z"/>
<path class="st6" d="M392.6,18.4l-1.4,1.9l-1.5,1.4l-1.7,1.2l-1.7,1.1l-1.8,0.9l-2,0.8l-2,0.7l-1.9,0.5l-2,0.4l-2.1,0.4l-4.2,0.6
	l-4.2,0.3l-4.2,0.2l-5.8-0.6l-2.7-0.5l-2.8-0.6l-0.7-0.4l-0.9-0.1l2.3-1.6l2.1-1.6l1-0.9l1-1.1l0.9-1.1l0.9-1.2l4.2-0.1l4.3,0.1
	l8.6,0.3l4.5-0.1l4.7,0.1l4.6-0.1l2.2-0.1L392.6,18.4z M192.5,16.4l-1,0.1h-0.9l-0.8-0.1l-0.8-0.2l-1.6-0.6l-1.5-0.7l-3-1.7
	l-1.5-0.8l-1.6-0.5H179l-0.7-0.1l-1.4-0.2l-1.2,0.1l-1.1,0.8l-0.1,1l0.2,0.9l0.4,0.9l0.6,0.8l0.5,0.7l0.3,0.9l1.3,0.4l0.1-0.7
	l-0.2-0.7l-0.5-1.2l-0.8-1l-0.7-1.1l0.9-0.3l1.4,0.9l0.5,1.5l0.7,1.1l0.8,0.4l0.9,0.4l0.8,0.3l1,0.1h1l0.9-0.2l1.7-0.4l1.6,0.5
	l1.6,0.4l0.8,0.1l0.9-0.1l0.9-0.1L192.5,16.4z M186,84.5l-0.2-0.7h-0.9l-1.1,0.8l-1,0.9l-0.8,1.1l-0.6,1.1l-0.5,1.2l-0.3,1.3
	l-0.1,1.4v1.4l1,0.3l0.7-0.6l0.7-1l0.8-0.6l2.1-1.1l1.1-0.3l1.6-0.5l-0.6-1h-1.2l-1.8,0.6l-1.4,0.5l-1.3,0.4l0.6-1.6l0.8-1.5
	l0.4-0.7l1.4-1L186,84.5z M203,85.7l-0.7-1l-0.8-1l-0.9-1l-0.9-0.9l-1.2-0.4l-1.2,0.5l0.6,0.8l0.7,0.4l0.7,0.4l1,1.4l0.3,0.7
	l0.3,0.8l-1.5-0.6l-1.6-0.4l-1.5-0.2l-1.6-0.1l-0.3,1.3l1.5,0.2l1.5,0.3l1.4,0.5l0.7,0.5l1.3,1.2l0.9,1.4l0.8,0.3l0.9-0.7l0.3-1.2
	l-0.1-0.7l-0.3-1.2L203,85.7z M229.8,84.8l-0.3-0.7l-0.1-0.8l-0.8-1.1l-1,0.3l0.6,3.5l-0.8-0.2l-0.8-1l-1-0.6l-0.9-0.9l-1-0.4
	l-1.2,0.2l0.3,0.9l0.8,0.6l0.9,0.5l0.8,0.7l0.8,1l0.4,1.2l0.3,1.1l0.6,1.1l0.9-0.1l0.7-0.6l0.5-1l0.3-1.2l0.1-1.3L229.8,84.8z
	 M214,80.6l-0.4-0.1l-0.4,0.1l-0.4,0.1l-1.1,0.6l-0.9,1l-0.7,1l-0.4,1.1l-0.3,1.3l-0.1,1.2v2.6l1.3,0.2l0.4-0.9l0.5-0.7l0.6-0.8
	l0.7-0.6l0.9-0.5l0.8-0.4l0.9-0.3l0.8-0.2l0.6-1.3l-0.7-0.1h-0.8l-0.7,0.2l-2,1l-1.4,0.8l0.1-0.9l0.3-0.9l0.5-0.9l1.3-1l1.1-0.7
	v-0.7L214,80.6z M191.2,68v-1l-0.9,0.1l-0.7,0.3l-1,0.9l-0.8,0.9l-0.6,0.9l-0.6,1.1l-0.4,1.1l-0.2,1.1l-0.4,2.3l0.5,0.7l0.9,0.2
	l0.9-1.3l1.1-1.2l1.2-1l0.7-0.3l0.8-0.2l0.8-0.3l0.7-0.1l0.7-0.1l0.8-0.3l-0.4-1.1l-1.6,0.1l-1.6,0.3l-1.5,0.6l-1.6,0.7l0.3-0.7
	l1-1.6L191.2,68z M223.1,70.7l-1-0.6l-0.7,0.3l0.1,0.8l0.6,1l0.1,0.7l-0.4,1.7l-0.6-0.7l-0.7-0.8l-0.8-0.6l-0.7-0.6l-1-0.3l-0.8-0.3
	l-1-0.2h-1l0.2,1.1l0.8,0.2l0.8,0.3l0.7,0.4l1.8,1.9l1,1.3l0.4,1.1l0.5,1l1-0.2l0.6-0.9l0.4-1.6l0.2-1.8l0.1-0.8l-0.1-0.9l-0.2-0.8
	L223.1,70.7z M209.8,64.5l0.1-1.1l-0.1-0.8l-0.1-0.9l-0.4-0.8l-1.1-1.5h-0.7l-0.1,0.7l0.2,0.7l0.4,0.8l0.3,0.8l0.1,1.5l-0.2,0.7
	L208,65l-0.4-0.6l-0.7-0.9l-1.3-1.1l-1.4-1l-1.3-1h-1l-0.4,0.8l0.9,1l1,0.7l1.1,0.7l1,0.8l0.6,0.9l0.5,1l0.5,1.1l0.8,0.9l0.7,0.1
	l0.8-0.4l0.1-1.8L209.8,64.5z M222.3,64.5v-0.7l-0.2-1.2l-0.5-1.7l-0.4-0.8l-0.7-0.5l-0.9,0.3l0.1,0.9l0.5,0.9l0.3,0.9l-0.1,0.9
	l-1.4-1.2l-1.5-1.2l-0.9-0.5L216,60l-1-0.2l-1-0.1V61l1,0.4l1,0.5l0.9,0.7l1.1,0.7l0.8,0.9l0.7,0.9l0.6,1l1,1.3l1-0.6l0.4-1.7
	L222.3,64.5z M193,53.1l-1.1,0.2l-1,0.6l-0.7,0.8l-0.5,1l-0.5,1.3l-0.3,1.1l-0.3,1.2l0.4,1.2h1.1l0.9-0.6l1-0.9l0.9-0.8l1-0.4l1-0.2
	l1.1-0.3L197,57l-0.3-1.1h-1.2l-1.1,0.2l-1,0.4L192,57l-0.7,0.6l-1,0.2l0.3-0.9l0.3-0.8l0.5-0.7l0.7-0.7l0.7-0.6L193,53.1z
	 M182.9,54.2l-0.7-0.6l-1.1,0.6l-1.5,2.2l-1.3,2.3l-0.5,1.2l-0.3,1.2l-0.4,1.2l-0.1,1.4l0.9,0.4h0.9l0.8-0.3l0.8-0.4l0.8-0.6
	l0.7-0.5l1.4-0.4l0.9-0.3l0.1-0.8l-1-0.2h-1l-0.9,0.2l-0.8,0.4l-0.7,0.4l-0.8,0.2l0.3-1.3l0.5-1.3l1.4-2.5l1.4-1.7L182.9,54.2z
	 M216.6,48.2l-0.7-0.8L215,47l-0.5,1.1l0.6,0.7l0.4,0.8l0.3,0.7l0.1,0.9l-1.2-0.9l-1.3-0.7L212,49l-0.8-0.1l-0.9,0.1v0.7l0.9,0.7
	l1,0.4l1,0.4l1,0.8l0.8,0.7l0.6,0.8l0.7,0.7l1,0.3l0.3-0.8l0.2-0.8v-0.8l-0.1-0.9l-0.5-1.6l-0.5-1.5L216.6,48.2z M215.6,39l-0.6-1.2
	l-0.7-1l-0.7-0.4l-0.6-0.6l-0.7-0.2l-0.8,0.5l0.4,0.7l0.9,0.6l0.9,1.2l0.3,1l-0.7-0.2l-2-0.9l-1.5-0.2l-1.5,0.1l-0.7,0.5l0.5,0.9
	L209,40l0.8-0.1l0.8,0.1l0.9,0.4l0.9,0.6l0.8,0.8l0.6,0.8h1l0.9-0.4l0.2-0.8l-0.1-0.9L215.6,39z M184.7,48.2l0.4-1l2.8-1.2l1.4-0.8
	l1.3-1l-0.4,1.2l-1,1l-0.6,1l0.7,0.6l1.8,0.1l0.6-0.1l1-0.2l1.4-0.4l1.5-0.7l1.2-0.9l1.1-1l0.7-1l0.8-1.4l0.6,0.9l0.1,0.7l-0.2,0.8
	l-0.4,1.1l0.4,0.8l1,0.2l1.4-0.8l0.8-0.7l0.6-0.9l0.6-0.9l0.4-1l0.3-1l0.1-1l-0.1-1l-0.8-0.6l-0.8,0.5l-0.2,0.7l-0.1,1.3l-0.4,1
	l-0.5,1l-0.4-1.1l-0.5-1.2l-0.7-1.1l-1-1l-1.3-0.2l-0.5,0.9l-0.1,1.1l-0.3,1.1l-0.4,1L196,44l-1.2,0.9l-1.1,0.6l-1.2,0.3l0.3-1.4
	l0.2-1.5v-0.7l-0.2-0.7l-0.3-0.7l-1-0.7l-0.7,0.3l-0.6,1l-1.4,1.6l-1.1,0.7l-1.1,0.7l-1.2,0.5l-1.3,0.5l-1.3,0.2l-1.3,0.1h-1.4
	l0.8-0.7l0.7-0.8l0.8-0.8l0.6-1l0.5-0.8l0.4-1l0.4-1l0.2-1.1l-0.2-1.7l-0.3-0.7l-0.7-0.5l-0.9,0.5l-0.9,0.3l-1,0.1l-1-0.3l0.7-1.4
	l0.4-1.6l0.1-0.8v-0.6l-0.2-1l-0.3-0.8l-1.2-0.5l-0.7,0.6l-0.8,0.4l-1.6,0.5l-0.3-0.7l-0.1-0.8l-0.1-0.8l-0.4-0.7l-0.4-1.1l-0.4-0.9
	l-0.6-0.8l-0.7-0.7l-0.7-0.6l-0.9-0.5l-1.8-0.8l-1.9-0.9l-1.7-0.8l-0.9-0.6l-0.8-0.6l-0.7-0.9l-0.6-0.9l1,0.3l0.9,0.3l1,0.6l1.2,0.4
	l0.7,0.1l1.3-0.4l1.1-0.7l0.7-1.1l0.3-1.8l-0.2-1.3l-0.5-1.2l-0.9-1.1l-1.1-0.9l-1.5-0.7l-0.7-0.3l-2.8-0.4l-2.1,0.2l-1,0.1l-1,0.3
	l-1,0.4l-0.9,0.5v-1.3l0.7-1.1l0.9-0.9l1-0.8l1.1-0.7l1.3-0.4l2.5-0.8l1.8,0.2l2,0.3l1.8,0.6l0.8,0.3l0.8,0.5l0.4,0.9v1.1l0.1,0.9
	l1.2,0.2l0.4-1l-0.1-1.1V7.8l0.8-0.6l1-0.3l1.1-0.1l1-0.1h1l2,0.2l1.9,0.6l1.9,0.8l1.9,0.8l1.9,0.8l1.7,0.8l2.5,1l2.8,0.9l1.1,0.3
	l1.4,0.3l1.4,0.1h1.3l-1.1,0.7l-1.4,0.3l-0.2,1.2l1,0.7l1.9-0.2l2,0.1l1.9,0.3l1.8,0.5l-0.9,0.6l-0.9,0.9l-1.5,1.8l0.1,0.7l2,0.3
	h1.6l1.5,0.3l1.5,0.5l-0.8,0.6l-0.6,0.8l-0.3,0.9l0.2,1l0.8,0.7l0.8,0.4l0.9,0.3l0.9,0.4L214,27l1.9,0.5L217,28l1.1,0.4l2.2,1.3
	l2.1,2.3l0.8,0.8L222,33l-1.2,0.3l-1,0.5l-0.8,0.6l0.1,1l0.4,0.8l1,0.5l1,0.5l1,0.7l1,0.9l0.9,0.8l0.7,1l0.6,0.9l0.5,1l-1.3,0.1
	l-1.3,0.1l-1.3,0.2l-1.2,0.6l-0.1,0.7l0.4,1.2l1.6,0.8l1,0.6l1.6,1.3l1.9,2L229,52l-1.2,0.2l-1.1,0.2l-2.3,0.5l-0.9,0.2l-0.6,1
	l0.6,0.8l0.7,0.3l3,2.4l1.2,1.1l1,1.2h-2.1l-1,0.1l-0.9,0.3l0.3,1.1l0.7,0.8l0.8,0.7l1,0.8l0.7,0.7l0.8,0.9l1.5,1.7l2.5,3.5l-1,0.2
	l-1.1-0.4l-1.2-0.2l-1.2,0.4v0.7l0.6,0.9l1,2.2l0.5,1.7l0.3,1.8l0.3,1.7l-1.1-0.2l-1.1-0.3l-1.1-0.1l-1,0.5l0.1,0.8l0.8,0.2l1.1,0.3
	l1.3,0.3l1.2,0.4l1.3,0.2l1,0.5l0.8,0.6l1.4,1.3l1.1,1.5l0.9,1.6l0.6,1.9l0.5,1.9l0.4,1.9l0.2,1.9L238,94l-1.2-0.3l-1.2,0.1
	l-0.3,0.7l0.1,0.7l0.8,1.2l0.6,0.8l0.5,0.9l0.4,1.1l0.1,1v1.1l-0.1,1.1l-0.3,1l-0.4,1l-0.7-0.6l-0.8-0.6l-0.7-0.5l-0.9-0.1h-0.9
	l-0.9,0.1l-1,0.6l-1,0.7l-0.8,0.9l-0.7,0.9l-0.6-0.9l-0.7-0.7l-0.8-0.6l-1-0.3l-1-0.3l-1-0.2h-2.1l-0.7,0.3l-0.8,0.3l-0.7,0.6
	l-0.6,0.7l-1,1.6l-0.8,1.6l-0.9-0.6l-1-0.8l-1.2-0.4l-1.1,0.3l-0.1,0.8l-0.3,1l-0.5-0.7l-0.2-2.8v-2.9l0.1-1.2l0.3-1.3l0.5-1.2
	l0.7-1.1l0.1-0.9l-0.9-0.2l-0.9,0.2l-0.8,1.3l-0.6,1.4l-0.5,1.5l-0.3,1.6l-0.1,1.6l0.1,1.6l0.1,1.6l0.2,1.6l0.4,1.1l0.5,0.9l0.8,1
	l0.8,0.8l0.9-0.3l0.4-1l0.7-2.5l0.8,0.7l0.9,0.8l0.9,0.6l1.1,0.2l0.3-0.9l0.3-0.9l0.4,2.5l0.2,2l0.1,0.6v1.3l-0.1,1.2l-0.2,1.3
	l-0.4,1.1l-1.8,1.4l-2,1.3l-1.8,1.2l-0.9,0.8l-1,0.9l-1.2,0.3l-1.1,0.4l-1.2-1.2l-1.4-0.8l-1.1,0.6l-0.9,1l-0.8,1l-0.9,0.9l-0.8-1
	l-0.8-1l-0.9-0.9l-0.9-0.6l-1,0.6l-1,0.9l-0.9,0.7l-1.3-0.4l-0.4-0.7l-1.2-1l-0.7-0.3l-1.4-0.6l-1.6-0.4l-1.3-0.6l-1-0.9l-0.5-1.2
	v-0.8l0.2-0.9l0.4-1.9l0.4-1.9l0.4-1.8l0.1-1l-0.1-0.9l1,0.5l0.7,0.1h0.7l0.9-2l0.4-1l0.2-1.1l0.8,1l0.8,1l1.3,2.1l0.1,1.8l0.4,0.8
	l1.2,0.8l0.8-0.3l1.2-1.1l0.9-0.5l1.1-1.2l0.6-1.4l0.5-1.6l0.1-1.7l-0.1-1.6l-0.1-1.7l-0.4-1.5l-0.3-1.6l-1.1-1.9l-0.9-0.8l-1-0.4
	l-1,0.4l0.1,0.8l1.3,1.6l0.6,1.3l0.4,1.4l0.3,1.5l0.1,1.4l-0.1,1.6l-0.1,1.5l-0.3,1.3l-1,1.4l-1.3,0.8l-0.3-1l-0.2-1.1L196,108
	l-0.7-0.8l-1.2-1.8l-0.7-0.8l-0.8-0.5l-0.9-0.3l-1.1-0.1l-0.6,0.8l-0.2,1.1l-0.1,1.1l-0.3,1.1l-1.1-1.5l-1.3-1.5l-0.8-0.7l-0.7-0.6
	l-1-0.4l-0.9-0.3H183l-0.8,0.3l-1.3,0.7l-0.9,1l-0.9,1.1l-0.8-0.7l-0.4-0.7l-0.4-0.9l-0.3-0.8l-0.3-1.7l-0.2-1.9l-0.9-0.4l-1,0.2
	l-1,0.5l-0.9,0.6v-2.3l0.5-2.2l0.6-2l0.8-2l-0.4-1l-1,0.1l-0.9,0.3l-1.5,1l0.4-1.5l0.6-1.5l0.9-1.5l1-1.4l1-1.3l1.3-1l1.4-0.9
	l1.6-0.5l0.8-0.6l0.9-0.3l1.9-0.5v-0.7l-1.8-0.6l-0.7,0.2l-0.6-0.7l-0.1-1l0.1-1l0.2-0.9l0.5-1.7l0.6-1.7l0.4-0.7l0.6-0.7l0.4-0.7
	l-0.4-0.8l-1.1,0.1l-1.1,0.3l-1,0.5l-0.9,0.4l0.7-1.3l0.9-1.2l1.2-1.1l1.2-1l-0.1-0.9l-1.3,0.1l-0.9,0.3l-0.8,0.6l-0.8,0.8l-0.7,0.8
	l-0.6,0.9l-1,1.7l-0.3,1.2l-0.4,1.1l-0.2,1.1l0.7,1l1-0.1l0.7-0.6l0.7-0.7l0.8-0.4l-0.3,0.8l-0.3,1l-0.3,1.7l-0.3,1.9l-0.2,1.2
	l-0.1,0.7l-0.9,0.3l-0.7,0.4l-1.5,1.1l-1.4,1.3l-1.2,1.4l-0.7,0.4l-0.9,0.3l-0.8,0.3l-1,0.2h-1.8l-0.8-0.1l-0.9-0.2l-1.2-0.9
	l-0.7-0.1l-0.7,0.1l-0.6,0.9l-0.7,0.8l-0.9,0.8l-1,0.6l-1.1,0.3l-1.2-0.1l-1.1-0.4l-0.9-0.5l-0.9-0.9l-0.5-1.1l-0.7-0.9l-1.1-0.1
	l-0.8,1.3L150,88l-1,1.2l-1.3,0.8l-0.8,0.3l-0.9,0.3l-0.8,0.3l-0.9-0.2l-0.9-0.6l-0.4-0.8l1-0.8l1-0.9l0.8-1l0.7-1.2l-0.3-1l-1,0.4
	l-2.1,2.1l-1.7,1l-0.9,0.6l-1,0.4l-0.9,0.4l-1,0.1l-1-0.3l-1-0.6l0.9-0.8l1-0.8l0.8-1l0.1-1.2l-1-0.5l-1.2,0.9l-0.8,0.8l-0.9,0.8
	l-0.9,0.6l-1,0.5l-1,0.4l-1.2,0.2H129l-1.7-0.8l1-0.8l1-1l0.9-1.1l0.6-1.2l-0.2-0.8l-0.8-0.6l-0.7,0.4l-0.6,1l-1.2,1.5l-0.8,0.7
	l-0.8,0.5l-0.8,0.4l-1,0.4l-0.9,0.1H122l-0.8-0.2l-0.7-0.6l0.9-0.8l0.8-0.9l0.6-1l0.5-1.1l-0.2-0.7l-1-0.2l-1.1,1.3l-0.6,1l-0.9,0.9
	l-0.9,0.5l-1,0.2h-1.1l-1-0.3l-0.8-0.6l-0.9-0.7l-0.6-0.8l-0.4-0.8l0.3-1.2v-0.4v-0.4l-2.3-0.3l-1-0.2l-0.8-0.3l-1.5-1.5l3.1,0.3
	l3.1-0.2l2.9-0.3l2.8-0.7l2.8-0.9l2.7-1.1l2.7-1.2l2.6-1.3l1.2,0.3l1.4,0.1l2.7,0.1l0.5,0.9l0.7,0.9l0.8,0.7l0.7,0.6l0.9,0.6l1,0.3
	l2.1,0.5l0.1,0.8l0.7,1.2l1.4,1.2l1.4,1l1.2,0.5l1.3,0.3l1.3,0.1l1.4-0.1l1.4-0.3l1.3-0.3l1.2-0.6l1-0.7l0.9-0.7l0.9-0.3l1.3,0.8
	l0.5,0.2l0.7,0.3l1.2,0.3l1.4,0.2l1.3,0.1l1.3-0.1l1.3-0.2l1.3-0.3l0.5-0.3l0.9-0.5l1.1-1.2l1-0.2l1.2,0.3h0.8l1.3-0.3l0.8-0.8v-0.7
	l-1.3-0.1H173l-1.1-0.2l-1-0.4l-1,0.3l-0.7,0.8l-0.8,0.8l-0.9,0.6l-1.2,0.4l-1.3,0.2l-1.3,0.1l-1.2-0.2l-1.2-0.3l-1.2-0.4L159,78
	l-0.9-0.8h-0.7l-0.9,0.8l-2.1,1.4l-1.8,0.8l-1,0.3l-0.5,0.1l-0.5,0.1h-1l-0.5-0.1l-0.5-0.1l-1.3-0.3l-1.3-0.7l-0.9-0.8l-0.7-1.1
	l1.9-0.3l1.7-0.6l1.7-0.7l1.7-0.8l0.3-0.7l-0.2-0.7l-1.2-0.3l-1.1,0.4l-1.1,0.6l-1.1,0.4l-1.3,0.3l-1.2,0.2l-1.4-0.1l-1.3-0.2
	l-1.2-0.3l-1.1-0.5l-1-0.8l-0.9-0.9l3.7-0.8l1.8-0.5l1.7-0.6l0.4-0.9l-1.2-0.7H143l-1.1,0.5l-1,0.3l-3,0.3l-1.5,0.3l-1.6,0.2
	l-1.5,0.1l-1.5-0.2l-1.3-0.4l-1.4-0.9l-0.8-0.3l3.8-0.6l3.7-0.6l3.5-0.9l1.7-0.6l1.7-0.7l0.4-0.8l-0.2-0.6l-0.8-0.5l-1.3,0.5
	l-0.8,0.3l-4.6,1.2l-2.3,0.5l-2.5,0.4l-2.4,0.3l-2.4-0.1l-2.4-0.3l-1.1-0.4l-1.2-0.4l-1.8-0.9l-0.8-0.5l-0.7-0.7l2.4-0.2l2.4-0.1
	l2.5-0.3l1.1-0.2l1.1-0.3l2.7-0.7l2.8-1l2.6-1l2.7-1l1.2,0.5l1.3,0.3l1.4,0.3l1.4,0.1l0.4,1.1l0.6,1.1l0.8,0.8l1,0.8l1,0.6l1.1,0.5
	l2.3,0.8l2.5,0.1l0.4,0.7l0.4,0.8l0.6,0.7l0.7,0.6l1.4,1l1.6,0.7l2.3,0.1l2.1-0.2l1-0.2l1-0.3l1-0.4l0.9-0.5l0.9-0.3l0.5,0.7
	l0.8,0.8l1.2,0.6l1.1,0.4h0.7l0.7-0.1l0.8-0.5l0.2-0.7l-0.8-0.6l-1.4-0.1l-1.3-0.3l-1.1-1.4l-0.8-1.5l-0.7,0.2l-0.7,0.4l-1.2,0.6
	l-0.8,0.5l-1,0.4l-0.9,0.2l-1,0.2h-2.1l-1.9-0.3l-0.8-0.5l-0.8-0.5l-1.1-1.4l1.6-0.6l1.7-0.6l1.1-0.5l0.5-0.2l0.8-0.5l0.6-1.2
	l-1.2-0.4l-0.8,0.2l-1.4,0.7l-1.4,0.6L155,64l-1.2,0.3h-1.1l-1.1-0.1l-1.1-0.3l-1-0.4l-1-0.4l-2-1l-1-1.5l2.5-0.1l2.3-0.6l2.2-0.6
	l2.1-0.8l0.4-0.8l-0.2-0.9h-1.3l-1.3,0.5l-1.4,0.4l-1.5,0.4l-1.4,0.2l-1.5,0.3h-1.6l-1.6-0.1l-1.4-0.2l-1.4-0.4l-1.4-0.9l-1.1-1
	l-0.8-1.3l2.6-0.1l2.5-0.1l2.6-0.4l1.1-0.3l1.2-0.4l1.4-0.3l0.7-0.2l0.5-1l-0.6-0.8l-2.1,0.6l-2.2,0.5l-2.4,0.3l-2.3,0.3h-2.4
	l-2.2-0.4l-2.1-0.7l-1.1-0.4l-0.8-0.6l2.7-0.3l2.8-0.6l1.4-0.4l1.3-0.4l1.2-0.6l0.6-0.3l0.7-0.4l0.7-0.3l0.5-1.3l-1.5-0.1l-1,0.4
	l-2,0.9l-2.1,0.8l-1,0.3l-1.1,0.1l-2.1,0.3l-1.1,0.1l-1-0.1l-1-0.1l-1-0.3l-0.9-0.5l-0.6-0.8l1.7-0.8l2-0.6l1.9-0.7l0.9-0.5l0.9-0.6
	l0.8-0.3L136,43l1.4-1.1v-0.8l-2.8,0.4l-2.3,1.2l-2,1l-2.1,0.7l-2.3,0.5l-2.3,0.4l-2.1-0.4l-1-0.4l-0.8-0.5l2.6-1.3l2.6-1.3l2.6-1.5
	l1.1-0.9l1.1-1v-0.7l-0.9-0.4l-0.9,0.3l-1.2,1l-1.7,1l-1.8,1l-1.8,0.8l-1.9,0.7l-2,0.4l-2,0.2l-1-0.1l-1-0.2l-1-0.2l-1-0.4l-1.1-0.9
	l-0.9-0.9l3.1-1.2l3-1.2l3-1.5l1.6-0.8l1.3-1l0.8-0.9l-0.3-0.9l-0.9-0.1l-1.7,1l-1.3,0.8l-2.7,1.4l-2.7,1.1l-2.8,1.1l-2.9,0.5
	l-1.5,0.3l-1.5,0.1h-1.4l-1.4-0.2l-1.5-0.4l-1.4-0.5l-0.9-0.6l3.4-1l3.3-1.2l3-1.4l2.3-1.2l0.8-0.4l0.2-0.7l-0.6-0.8l-1.1,0.2
	l-0.7,0.3l-0.7,0.4l-2,1l-0.5,0.2l-2.6,1.1l-2.7,1L96.4,35L95,35.2l-1.4,0.1h-1.4l-1.4-0.2l-1.3-0.3L88,34.4l-1.4-0.7l-1.2-1
	l-0.9-0.6l-0.7-0.8l-0.5-0.9l-0.3-1l3.2-0.9l3.2-0.5l0.4-0.8l-0.3-0.9h-0.9l-1,0.1L86.1,27l-1.7,0.5l-0.8,0.2l-1,0.1l-2.3,0.6
	L78,28.9l-4.7,0.8l-4.9,0.4l-5,0.4l-2.3-0.1L58.8,30l-2.3-0.5l-2.1-0.7l-2-1l-1.9-1.3l-0.8-0.7l-0.8-0.8l-0.8-1l-0.6-1l-0.5-0.8
	l-0.5-0.9L46,20.6l-0.4-0.8l6.8-0.1l7-0.1l6.8-0.1l7-0.3l12.5-0.1l12.7,0.3l12.6,0.6l12.6,1l4.9,0.7l4.9,1l2.2,0.5l2.1,0.8l2.2,1
	l2,1.1l2,1.4l1.8,1.4l1.7,1.6l1.5,1.5l1.3,1.3l0.8,1.3l0.8,1.4l0.9,1.3l-0.1,0.8l0.9,1.1l0.7,0.4l1.6,0.3l1.6,0.5l1.4,0.8l1.4,0.8
	l1.2,1.1l1.2,1.1l1,1.4l0.8,1.5l0.7,1l1.6,2.3l1.4,1.6l1.4,1.5l0.9,0.6l0.9,0.5l0.9,0.5l0.9,0.3l1,0.3l1,0.1h1l1.1-0.2l1.2-0.5
	l1.2-0.6l1.1-0.8l1-0.8l1-1l0.8-1.1l0.7-1.1l0.4-1.3L184.7,48.2z M180.3,14.5l0.7,0.7l0.9,0.3h0.9l1.2-0.3v0.8l-1.4,0.4h-0.7
	l-0.8-0.2l-0.7-0.5l-1-1.4l-0.1-0.8l0.7,0.1L180.3,14.5z M228.8,141.3l0.2,1.3l-0.3,1.3l-0.4,0.8l-0.7,0.9l0.1-1.2l0.1-1l-0.2-0.9
	l-0.5-0.7l0.8-0.4L228.8,141.3L228.8,141.3z M225.1,116.1l-1,0.2l-1-0.1h-1l-0.9,0.2l0.9-0.7l1.1-0.3h1.1l0.9,0.3L225.1,116.1
	L225.1,116.1L225.1,116.1z M185,116.7l-1.6,0.2l-0.9,0.1l-0.9-0.3l0.7-0.7l0.9-0.1L185,116.7z M225.6,117.7l1.1,1.9l1.4,2l0.8,0.9
	l0.8,0.7l1,0.5l1.1,0.4l1,0.9l0.7,1.1l-0.1,1.1l0.2,0.8l0.8,0.3l0.8-0.5l0.3-0.9l-0.1-0.9l0.7,0.6v0.8l0.4,0.9l0.7,0.4l0.7-0.4
	l0.4-1.5l1.4,0.8l0.7,0.5l0.4,0.7l0.2,0.7l-0.3,1l-1.1,0.1l-3.4-0.9l-3.5-0.5l-0.4,0.7l0.2,0.8l0.6,0.7l0.2,0.8l-0.7,0.8l0.1,0.9
	l1,0.4l0.9-0.9l0.7,0.4l-0.7,0.9l-0.4,0.7l0.8,0.7l0.7-0.1l0.9-0.5l0.2,1.4l-0.3,0.7l-1.5-0.4l-0.9-0.9l-2.1-2.2l-1-0.9l-0.9-0.7
	l-0.8-0.8l-0.7-0.4l-0.9,0.8l0.1,0.9l0.4,0.8l-1.3,0.7l-0.7,0.7l0.5,0.8l1.7-0.1l-0.4,0.7l-0.7,0.5l-0.3,0.9l1.6,0.4l0.2,0.7
	l-0.3,0.7l-1,1l-0.7-0.2l-0.8-0.8l-0.7-1.7l-0.3-1.1l-0.3-0.9l-0.2-0.8l-0.2-1.7l-0.2-1l-0.3-0.7l-0.3-0.8l-0.5-0.7l-1.6-0.4
	l-0.8-0.3l-0.8-0.4l-0.7-0.5l-1-1.4l-0.2-0.8l-1-0.4l-0.9,0.3l-1,0.4l-0.8,0.3l-0.9,0.1l-0.8-0.2v-0.8l0.4-1.2l0.7-0.5l0.5,1
	l0.8,0.2l0.3-1.4l-0.3-1l1,0.9l0.8,0.4l0.7-1.1l-0.1-0.8l0.6-1.1l1-0.8l1-0.9l0.8-1.1l1-0.5l1.2-0.3l1.3-0.1L225.6,117.7
	L225.6,117.7z M211,125.9l-0.1,0.9l-1,0.9l-1.2,0.7l0.2-0.9l0.6-0.8l0.9-0.6L211,125.9z M197.7,129.8l-1.2-0.9l-0.8-0.4l-0.7-0.3
	v-0.9l0.4-0.9l1.2,0.6l0.7,1.1l0.3,0.7L197.7,129.8z M245,132.9l-1.4-1.2l-1.4-1l0.6-0.8l0.8,0.4l0.8,0.9l0.5,1L245,132.9z
	 M161.5,132.3l-0.9,0.6l-0.8,0.8l-1,1.5l-0.1-1.4l0.4-0.7l0.4-0.7l0.9-1.1l0.8-0.6l0.4,0.8L161.5,132.3z M178,137.9l-0.6,0.8
	l-0.8,0.5l-0.7,0.2l-0.7-0.6l0.3-0.8l1-0.5l0.4-0.7l-1-0.3l-0.4-1l0.7-0.2l0.9,0.1h0.7l0.3-1l-2.1-0.4l0.5-1.2l0.4-0.7l-0.9-0.9
	h-0.7l-0.9,1.3l-0.8,1.5l-0.8,1.4l-1,1.5l-1.1,1l-0.8,0.2l-0.7-0.1l-0.9-1l0.2-1.2l1.1,0.4l1,0.7l0.4-1l-1.5-1.4l0.8-0.4l1,0.6
	l0.3-0.8l-0.6-0.8l0.1-1l1.1-0.8l1.1-0.8l0.9-0.8l-0.3-0.7l-0.8-0.3l-0.7,0.1l-1.6,1.1l-1,0.9l-1.3,0.4l-1.3,0.4l-1.4,0.3l-0.7,0.1
	l-0.7-0.1l-0.7-0.2l-0.7-0.7l0.1-1l0.6-0.7l1.4-0.6l0.9-0.3l0.9,0.4l0.6,0.8l0.9,0.3l0.4-1.3l-0.3-0.7l0.8,0.2l0.4,0.7l0.9,0.6
	l0.4-1.1l-0.1-0.8l1-0.8l1.2-0.4l1.3-0.4l0.7-0.3l1.2-0.7l1.4-1.6l0.9-1.3l1-1l0.7-1l0.6-1l0.7-0.8l1.3-0.1l1,0.2l1,0.5l0.2,0.8
	l0.9,1.8l0.9,1l1.3,0.8l0.3,1l-0.1,1.1l0.2,0.8l1.2-0.1l0.4-0.9l0.1-0.9l0.4,0.8v1.4l0.4,0.8l1.2-0.4l0.4-1.4l0.6,0.8v1.2l-0.6,1
	l-1.1,0.5l-1.2,0.1l-1.1-0.3l-0.9-0.2l-1,0.1l-1,0.8l-1,0.3h-1.2l-1.2-0.2h-1.1l-0.8,0.3l-0.7,0.8l-0.2,0.7l-0.1,0.8l-0.7,2.4
	l-0.8,2.3l-0.4,0.9L178,137.9z M239.5,140.8l-0.2-0.8l-0.5-0.8l-0.9-1.2l0.9-1l0.8,1.5l0.2,1.1L239.5,140.8z M168.3,139.8l-0.9,1
	l-0.8,1.1l-0.3,0.8l-0.4,0.9l-0.1-0.9l-0.1-0.8l0.1-1.6l0.5-1.2l0.8-0.5L168.3,139.8z M176.9,140.6l-0.1,0.9l-0.3,1l-0.2,0.9l0.1,1
	l-0.7-0.6l-0.5-1.1l-0.2-1.1l0.4-0.9L176.9,140.6z M179.9,113.1l-0.2-1l-0.2-2.2l-1.1-0.4l-1,1l-1,0.9l-0.1-0.8l-0.2-0.7l-0.1-1.3
	v-1.4l-0.1-1.4l0.9,1l0.9,1.1l1,0.7h1.4l0.9-1.4l0.5-0.7l0.5-0.7l0.1,1v1.1l-0.4,2.1l-0.5,2.1l-0.3,1l-0.3,1.1l-0.7-0.9L179.9,113.1
	z M182.8,113.1l0.1-0.8l0.8-0.3l1.2,0.5l0.6,0.2l-0.1,0.4l-0.2,0.6l-0.1,1.3l-1.2-0.2l-1.5-0.3l0.2-1.3L182.8,113.1L182.8,113.1z
	 M221.5,113.1l0.6-0.5l1-0.5h0.9l0.7,0.7v0.4l0.1,0.8l-0.8,0.3h-0.9l-0.8-0.1l-0.9,0.3l-0.2-1L221.5,113.1z M226.5,113.1l-0.4-1.8
	l-0.3-2l-0.6-1.9l0.2-0.7l-0.5-1.1l-0.1-0.7l0.9,0.5l0.7,0.9l0.4,1l0.4,0.9l0.7,0.6l1-0.3l1-0.9l0.8-1.2l0.9-1.1l1-0.8l0.3,0.9v3.1
	l-0.4,1.9l-0.5,2l-0.6-0.9l-0.8-0.5l-0.9-0.3l-0.8-0.2l-0.4,1l0.2,1l-0.4,0.7l-0.3,0.8l-0.4,0.8l-0.7,0.5l-0.4-2L226.5,113.1z
	 M223.7,108.4l-0.9,0.1h-0.8l-0.7,0.3l-0.7-0.2l-0.5-1.8l0.1-1.1l1-0.8l1.2-0.7l0.6,0.9l0.4,1.1L223.7,108.4z M186.6,107.6l-0.2,1.5
	l-1.2-0.1l-1.3-0.2V107l0.2-0.8l0.4-0.8l1.2,1L186.6,107.6z M224.3,110.3l-0.8,0.3l-0.8,0.2l-1.4,0.2l0.5-0.7l0.8-0.6h0.9
	L224.3,110.3z M185.7,111.1h-1l-1.4-0.2l0.7-0.8h0.7l1.1,0.3L185.7,111.1z M292.6,71.7l2.3,0.9l2,0.7l2,0.5l2.2,0.3l-0.9,0.7
	l-0.8,0.5l-2,0.8l-2,0.6l-2.2,0.2h-2l-2.2-0.2l-2.1-0.5l-2-0.6l-1.5-0.8l-1.5-1.1l-2.9-2.2l-0.5-0.9l-0.5-0.9l0.7-0.4l0.8-0.3
	l1.6-0.5l1.6-0.6l0.8-0.5l0.8-0.5l2,1.2l1.9,1.2l2,1.2L292.6,71.7z M125.4,69.2l1,1.1l1.2,1l-1.2,0.9l-1.4,0.7l-2.8,1.1l-2.4,0.6
	l-2.4,0.8l-1.2,0.3L115,76l-1.2,0.1h-1.4l-3.9-0.3l-1.8-0.3l-0.9-0.3l-0.8-0.3l-0.7-0.2l2.1-0.4l2.1-0.3l2.1-0.5l2-0.6l4-1.5
	l3.9-1.4h0.7l1.7-0.7l1.2-0.3L125.4,69.2z M71.1,64.5L69,63.7l-2.4-1.1l-2.2-1.3l-2.2-1.4L60,58.3l-2-1.6l-1.9-1.8l6.7,1.9l3.3,0.8
	l1.7,0.2l1.8,0.2l3.1,0.1h3.1l6.2-0.3L94.3,57l1.6-0.3l0.8-0.1l0.8-0.1l1.3-0.3l1.2-0.4h1.1l0.6,1.2l1.5,1.6l1.4,1.4l1.6,1.3l1,0.5
	l1,0.4l-2.1,0.7l-2.2,0.6l-3.8,0.9l-0.5,0.1l-2.2,0.5l-2.2,0.3l-4.4,0.4L86.4,66L82,66.4l-2.1-0.1l-2-0.4l-4-0.7l-2.4-0.7L71.1,64.5
	z M107.9,64.5l1.1-0.3l1.3-0.1l1-0.7h1.1l1.2,0.3h1.3l0.4,0.7l0.5,0.7l1.4,1.1l1.5,0.8l1.5,0.8l-1.7,0.9l-1.7,0.7l-1.8,0.7l-1.8,0.7
	l-3.4,1l-3.5,0.7l-3.4,0.4l-1.8,0.1h-1.9l-1.7-0.2l-1.8-0.2l-1.8-0.3l-1.6-0.4l-1.7-0.5l-1.5-0.6l-1.6-0.8l-1.4-0.9l-1.6-0.9l2-0.3
	l2.1-0.3l4.2-0.3l4-0.4l2.1-0.3l1.9-0.5l2.4-0.5l2.5-0.6l2.4-0.6L107.9,64.5z M262.2,64.5l-1-1l-1-1.3l1.2-0.3l1.1-0.3l1.1-0.5
	l1-0.6l0.9-0.8l0.9-0.8l0.8-1l0.6-1.1l1.5,1.9l1.5,1.5l1.9,1.4l2,1.1l2.2,0.8l2.2,0.6l1.8,0.4l0.6,0.1l2.3,0.2l-1.4,0.9l-1.5,0.7
	l-1.5,0.7l-1.5,0.5l-1.6,0.4l-1.7,0.3h-1.8l-1.8-0.2l-1.6-0.2l-1.6-0.4l-1.5-0.5l-1.4-0.7l-1.3-0.7l-1.3-1L262.2,64.5z M287.5,64.5
	l0.4-0.3l3.2-1.1l1,0.5l1.1,0.4l1.7,0.5l0.5,0.1l2.3,0.7L300,66l2.6,0.5l2.7,0.4l2.6,0.3l2.7,0.2l2.7,0.1l2.7-0.1l2.7-0.3l2.7-0.3
	l-0.9,0.9l-1.1,0.9l-1.5,0.9l-1.6,0.8l-3.5,1.4l-2.2,0.4l-2.2,0.3l-2.2,0.1H304l-2.3-0.3l-2.2-0.4l-2.4-0.6l-2.5-0.9l-2.5-0.9
	l-2.1-1l-2-1.2l-1.8-1.5l0.7-0.9L287.5,64.5z M300.8,64.5l-2.1-0.6l-1.9-0.7l-0.9-0.2l-0.9-0.4l-0.8-0.4l-0.9-0.3l1.2-1.1l1.4-1
	l1.4-1.1l0.6-0.7l0.5-0.8l0.8-0.6l0.9-0.4l1.3-0.5l1.3-0.6l1.3,0.3l1.3,0.3l1.4,0.2l1.3,0.3l2.2,0.2l2.4,0.2l2.2,0.2l2.2,0.5
	l4.2,0.1l4.2-0.2l4-0.2l4.1-0.4l4-0.7l4-0.8l3.8-1.1l3.8-1.4l-2,2.1l-2.2,1.7l-2.3,1.5l-2.5,1.5l-2.5,1.2l-2.5,1.1l-2.7,1l-2.6,0.8
	l-3.9,0.9l-1.6,0.3L322,65l-4.3,0.5l-4.3,0.3H309l-4.2-0.5l-2.1-0.3L300.8,64.5z M295.7,57.4l-1.7,1.6l-1.9,1.3l-2,1l-2.1,0.8
	l-2.1,0.5l-2.3,0.2l-2.3-0.2l-2.3-0.5l-1.7-0.4l-1.6-0.8l-3.1-1.8l-0.7-0.8l-0.8-0.8l-0.7-0.8l-0.6-0.7l-1-1.7l1.3-0.6l1.3-0.8
	l1.1-0.9l0.4-0.7l0.5-0.7l2.4,1.7l2.5,1.5L281,55l2.6,1l2.9,0.8l2.9,0.5l3.1,0.2L295.7,57.4z M135.1,54.9l0.1,0.7l1.1,1.8l-1.2,0.8
	l-1.3,0.6l-2.6,0.9l-5.4,1.6l-2.7,0.4l-2.7,0.3l-2.8,0.2l-1.5-0.1l-1.3-0.2l-1.1-0.3l-1.2-0.1l-0.7-0.2l-0.7-0.1l-0.7-0.2l-0.7-0.3
	l-1.6-0.7l-1.7-0.9l-0.8-0.6l-0.8-0.7l-0.5-0.7l-0.6-0.8l1.9,0.2l1.9,0.1h3.7l3.8-0.3l3.7-0.6l3-0.3l2.8-0.6l2.7-0.8l2.8-1l1.3,0.4
	l1.2,0.3L135.1,54.9z M47.7,31.9l-1.1,0.2l-3.5,0.3l-3.6,0.1l-3.6-0.2l-3.6-0.2L30.9,32l-2.1-0.2l-3.4-0.5l-2.6-0.7l-2.7-0.7l-2.5-1
	l-2.5-1.1l-2.4-1.3l-2.1-1.6L9.6,24l-1-1l-0.8-1l-0.9-1.3l2-0.2h2l1.9-0.1l1.9-0.3h5l5-0.1h4.9L32,20l2.5,0.2l7.2-0.4l1-0.1l0.7,0.4
	l0.8,1.6l0.9,1.6l1.1,1.5l1.2,1.6l1.3,1.4l1.5,1.3l1.5,1.1l1.6,0.9l-3.4,0.7L47.7,31.9z M57.6,31.9l2.6,0.2l3.1,0.1l3-0.1l2.9-0.1
	l0.4,0l2.6-0.3l2.9-0.4l5.7-1.1l0.6,0.9l0.5,1l0.5,0.8l0.6,0.7l1.5,1.3l1.6,1l1.7,1l-2.6,0.6l-2.8,0.4L79.9,38L77,38.3l-3.4,0.2
	l-3.5-0.3l-3.4-0.5L65,37.3l-1.6-0.5l-1.7-1l-1.6-1.1l-1.4-1.3L57.3,32L57.6,31.9L57.6,31.9L57.6,31.9z M317.6,31.9l-1.3,0.9
	l-0.9,0.4l-0.9,0.3l-0.8,0.3l-0.8,0.3l-1.7,0.3h-1.7l-1.7-0.3l-1.6-0.4l-1.5-0.6l-3.1-1.2l-1.4-0.6l-1.2-0.8l-1.2-0.9l-1.3-0.9h-0.9
	l-0.6,0.9l0.5,0.9l2,1.2l0.8,0.5l2.5,1.3l1.2,0.8l1.4,0.6l1.4,0.5l1.4,0.5l-0.8,0.8l-1.1,0.6l-0.9,0.3l-1,0.3l-1.9,0.3l-1.9-0.1
	l-1.9-0.4l-1.7-0.5l-1.7-0.7l-3.4-1.5l-1-0.6l-1-0.8l-1-0.5l-1.1,0.4l0.1,1.1l1,0.4l3,1.9l1.5,1l0.8,0.2l0.9,0.3l-0.6,0.7l-1.4,0.7
	l-0.8,0.1l-1.6,0.2l-1.6,0.3l-1.7-0.2l-1.5-0.3l-1.5-0.3l-1.5-0.4l-1.5-0.5l-1.4-0.6l-2.7-1.6l-1-0.1l-0.5,1.2l2.2,1.5l2.4,1.1
	l2.5,0.9l2.5,0.8l-1.3,0.6l-1.5,0.4l-1.5,0.2l-1.6,0.3h-1.6l-1.6-0.2l-1.5-0.3l-1.4-0.3l-2.1-0.9l-2-1l-0.8,0.1l-0.4,0.9l0.6,0.8
	l2.2,1l2.1,1l1.1,0.2l1.2,0.4l1.3,0.1h1.3l-1.2,1l-1.2,0.8l-1.5,0.5l-1.2,0.3l-1.8,0.1h-1.5l-0.8-0.1l-0.7-0.1l-1.5-0.3l-1-0.4
	l-1-0.6l-1-0.3l-1.1,0.2l-0.1,0.7l0.9,0.9l2.5,1.3l2.5,0.6l1.2,0.2l1.3,0.1l1.4-0.1l1.2-0.2l-1.2,1.1l-1.4,1l-1.1,0.6l-1.3,0.4
	l-1.4,0.3l-1.4,0.2H262l-1.4-0.1l-1.4-0.2l-1.2-0.4l-0.9,0.3l0.2,1l0.9,0.6l1.9,0.4l2.1,0.2l2,0.1l1.1-0.2l1-0.1l-0.8,1.4l-1,1.3
	l-1.3,0.9l-0.8,0.4l-0.8,0.2l-1.4,0.5l-1.4,0.2h-1.4l-1.4-0.2l-1.3-0.3l-1.4-0.5L251,58l-1.2,0.6l0.4,0.9L251,60l1.1,0.3l0.9,0.5
	l1,0.4l1.1,0.4l1.2,0.3l1.2,0.2l-0.1,0.7l-0.7,1.2l-0.9,0.5l-1.1,0.6l-1.3,0.4l-0.9,0.1l-0.9-0.1l-0.8-0.3l-0.8-0.3l-0.8-0.4
	l-1.9-1.6h-0.7l-0.4,1.1l0.2,0.5l0.4,1l0.2,0.9l-0.4,1.1l-0.5,0.7l-0.8,0.5l-1.7,0.5l-0.8-0.1l-1.2-0.7l-0.7-1l-1-0.4l-0.4,1
	l0.7,1.4l0.8,0.8l0.8,0.7L243,71l1.3,0.1L245,71l1.1-0.2l0.9-0.8l0.9-1.3l0.7-2.1l1.8,0.4l2,0.3l1,0.1l1-0.2l1-0.3l0.9-0.4l1.6-1
	l1-1.1h0.6l1.3,1.2l1.6,1.3l1.6,1l1.8,0.8l1.9,0.8l2,0.4l2.1,0.2l2.2-0.1l-1.3,0.9l-1.5,0.8l-1.6,0.5l-1.5,0.3h-1.6l-1.6-0.1
	l-1.7-0.4l-1.6-0.5l-1.1-0.5l-1-0.8l-1-0.9l-1.2-0.3l-0.4,0.8l-0.1,0.8l1.9,1.5l1,0.6l1.1,0.6l1,0.4l1.1,0.4l1.2,0.2l1.2,0.3
	l-1.1,0.3l-1.1,0.5l-1.1,0.3l-1.3,0.2h-1.8l-1.8-0.5l-0.8-0.3l-0.8-0.4l-0.8-0.5l-0.7-0.7l-0.8-0.3l-0.8,0.3l-0.3,0.7l1.4,1.7
	l1.6,0.9l1.5,0.6l1.6,0.4l-1,1.2l-1.2,0.8l-1.5,0.5l-0.8,0.1l-0.8,0.1l-0.7-0.1l-1.1-0.3l-1.6-0.7l-1.5-1l-1.4-1.3h-0.7l-0.5,1
	l-0.8,1.5l-0.7,0.9l-1,0.7l-0.9,0.1l-0.9-0.3l-0.7-0.4l-0.7-0.5l-0.8,0.1l-0.2,0.4l-0.3,0.6l0.4,0.9l2.4,1l1,0.2l1.1-0.2l1-0.5
	l0.8-0.7l1-1.3l0.4-0.5l0.6,0.5l1.2,0.8l1,0.5l1.1,0.3l1.2,0.2l1.1,0.1h1.2l1.3-0.1l1.4-0.8l1.5-0.9l1.2-1.1l0.3-0.7l0.3-0.8
	l2.4-0.3l1.2-0.3l1.1-0.4l1-0.5l1.1-0.6l0.9-0.7l1-0.8l1-0.2l1.1-0.3l1.8-0.9l1.9-1l1.9-0.9l0.7,1l0.8,0.9l0.8,0.7l0.9,0.8l1.9,1.2
	l2.4,1.2l2.3,0.9l2.3,0.5L291,79h2.5l2.3-0.3l-1,0.8l-0.7,0.1l-0.8-0.1l-1.2,0.2l-0.3,0.9l-0.1,0.4l0.9,0.8l0.6,0.7l-0.9,1.8
	l-0.8,0.5l-0.9,0.3l-0.9,0.1l-0.9-0.3l-1.4-0.9l-1.2-1.2l-0.6-0.8l-0.4-0.8l-0.1-0.7l-0.1-1l-0.7-0.6h-1l-0.2,1.1l0.1,0.5l0.1,0.7
	l0.4,1l0.7,1.1l0.7,0.9l0.9,1l1,0.8l-1.3,0.7l-0.7,0.2l-0.7,0.2h-0.7l-0.7-0.2l-1.1-0.5l-0.9-0.8l-0.9-1l-0.7-1l-0.4-1l-0.3-1.1
	l-0.1-1l-1-0.6l-0.4,0.6l-0.3,0.5l0.2,1.2l0.4,1.2l0.4,1.2l0.8,1.2l0.7,1.2l-1,0.6L277,88l-1.1-0.1l-1.2-0.3l-0.8-0.4l-0.7-0.6
	l-1.1-1.4l-0.4-0.8l-0.3-0.8l-0.4-1.7l-1.3-0.6l-0.7,0.3l0.7,2.6l0.4,1.2l0.6,1.2l-0.5,0.9l-0.7,0.8l-0.8,0.6l-0.9,0.3l-1.2,0.2
	l-1.1-0.2l-1-0.3l-1-0.4l-0.9-1l-0.6-1.2l-0.5-1.1l-1.1-0.6l-0.6,0.9l0.2,0.9l0.3,0.9l0.5,0.9l0.7,0.9l0.6,0.9l-0.6,0.9l-1.3,0.3
	h-1.3l-1.3-0.1l-1.5-1l-0.6-0.7l-0.4-0.8l-0.1-1.4l-0.3-0.9l-0.8-0.3l-0.8,0.6l-0.6,1.7l-0.3,0.9l-1,1.1l-1.2,0.8l-0.7,0.3l-1.4,0.3
	l-0.8,0.1l-1-0.3l-0.7-0.9l-0.7-0.7l-1.1,0.2l-1,0.5l-0.9,0.2l-1.1-3.1l-0.8-1.6l-0.9-1.4l-1-1.4l-1.1-1.2l-1.4-0.9l-1-0.5l-0.6-0.3
	l-0.4-2.2l-0.4-1.9l-0.5-1.8l-0.7-1.7l1,0.4l1.2,0.6l1.3,0.2l1-0.9l-0.4-1.3l-0.5-1.2l-0.5-1.1l-0.7-1.1l-1.5-2.1l-1.3-1.8l-0.3-0.4
	l-1.8-1.8l0.9,0.3l1,0.4l1,0.2l0.9-0.5l-0.1-0.8l-0.2-0.7L232,60l-2.5-3l-1.4-1.4l-1.5-1.2l1.1-0.4l1.4,0.1l1.4,0.1l0.7-0.1l3-0.6
	l2.3-0.6l1.1-0.5l0.9-0.5l0.9-0.8l0.6-1l0.6-1.9l0.1-0.4l0.9-2.3l0.5-1l0.6-0.9l0.6-1l0.9-0.9l0.8-0.8l0.8-0.8l1-0.7l0.9-0.7l2.1-1
	l2.2-1l0.3-0.9l1.6-2.5l0.9-1.3l0.6-0.8l1.7-1.9l2.1-1.7l2-1.4l2.2-1.2l2.3-1l2.4-0.7l2.5-1l2.5-0.6l2.6-0.7l2.5-0.8l2.1-0.4
	l2.1-0.4l2.1-0.1l2.2-0.2l4.5-0.1l4.5-0.3l12.7,0.2h12.7l12.8,0l12.8-0.1l2-0.2l1.9,0.1l3.9,0.1l-0.3,0.7l-1.5,1.6l-1.1,0.8
	l-0.9,0.9l-1.4,0.8l-1.5,0.8l-3.1,1.2l-3.2,0.9l-3.3,0.7l-3.4,0.4l-3.5,0.1l-3.4-0.2l-3.4-0.5l-2.9-0.4l-2.8-0.4l-2.8-0.8l-1.3-0.4
	l-1.3-0.6l-0.9,0.1l-0.4,0.7l0.2,0.8l2.1,0.9l1.5,0.5l1.7,0.4l3.1,0.8l-1.4,1.6l-1.5,1.4L317.6,31.9z M339.1,31.9l-1.1,0.8l-3.2,1.5
	l-3.3,1.4l-1.9,0.6l-2,0.6l-2,0.2l-2.2,0.3h-4.2l-2.2-0.3l-2-0.2l-1.1-0.4l-1-0.3l3.4-1.1l1.7-0.8l0.7-0.4l0.8-0.6l1-1.1l1.2-1
	l0.9-1l0.7-1.3l1.6,0.4l1.6,0.2l3.4,0.2h6.8l1.7-0.3l1.8-0.4l1.8-0.3l1.7-0.5l-1.3,1.4l-1.4,1.1l-1.5,1L339.1,31.9z M374.1,31.9
	l-1.6,1.5l-2.3,1.6l-2.5,1.2l-2.6,1l-2.6,1l-2.8,0.6l-2.8,0.5l-2.8,0.4l-2.8,0.3l-2.9,0.2l-3-0.1l-2.9-0.1l-2.9-0.3l-2.8-0.5
	l-2.7-0.6l-1.1-0.5l-1.1-0.3l6-2.8l2.5-1.5l2.3-1.5l2.3-2l2.2-2l1.1,0.2l1.1,0.4l5.3,0.9l2.7,0.4l2.7,0.4l2.7,0.2l2.9,0.1l2.7-0.1
	L371,30l5.3-0.5l-1,1.1l-1,1L374.1,31.9z M45.9,48.2l-0.8-0.4L42,45.6l-1.5-1.2l-1.2-1.2l4,0.5l4,0.3l4,0.2l4-0.1l4-0.3l4-0.3
	l3.9-0.5l3.9-0.8l1.8,0.6l1.8,0.9l1.8,0.8l1.8,0.8L81,46l2.6,0.9l2.6,0.8l1.4,0.2L89,48l1,0.2l1.5,0.1l1,0.6l0.5,1.2l1,1.1l0.9,1.1
	l1,1l1.2,0.8l-1.7,0.5l-1.7,0.4L92,55.3l-1.8,0.1l-3.8,0.1l-1.8,0.2l-1.9,0.2L76.9,56h-2.8l-2.8-0.1l-2.8-0.2l-2.7-0.4L63,54.7
	l-2.5-0.8l-4-1.2l-3.9-1.5l-3.7-1.6L45.9,48.2z M104.3,48.2l2.2-0.4l2.9-0.6l2.9-0.7l5.6-1.6l0.6,0.7l1.4,1l0.8,0.3l0.7,0.2l1.7,0.2
	h1.7l0.7,1l1.1,1.1l1.1,0.9l1.1,0.5l-0.5,1.1l-1.2,0.5l-2,0.6l-2,0.5l-4,0.7l-8.3,1.1l-3.2-0.4l-3.2-0.3l-1.5-0.3l-1.3-0.5l-1.6-0.5
	l-1.3-0.7L98,52.4L97.3,52l-1-1l-0.9-1.2l-1-1.2l3.2,0.3l3-0.2l3-0.3L104.3,48.2z M275.9,48.2l0.9-0.8l0.8-0.8l0.7-1l1.8-0.2
	l1.6-0.4l1.6-0.5l1.6-0.7l1.4,1.1l1.5,0.9l1.5,0.8l1.7,0.6l3.2,1.1l3.4,1.3l0.9,0.2l1,0.3l2,0.3l4.2,0.2l-1,0.9l-0.9,0.8l-1,0.7
	l-1.1,0.6l-1.2,0.5l-1.2,0.4l-2.6,0.7l-2.5,0.3l-2.7,0.1l-2.6-0.3l-2.6-0.5l-1.4-0.4l-1.6-0.4l-2.8-1.3l-2.7-1.5l-2.5-1.8
	L275.9,48.2z M300.9,48.2l-0.6-0.1l-1.3-0.3l-1.2-0.5l-1.1-0.6l-1.3-0.2l-1.1-0.4l-1.1-0.4l-1.1-0.3l-2.8-1.1l-1.3-0.8l-1.1-1h1.1
	l1.2-0.2l1.1-0.3l1.2-0.2l1-0.5l1-0.5l1-0.5l0.9-0.7l1.6,0.4l1.7,0.2h1.7l1.8-0.1l1.7-0.5l1.6-0.6l1.5-0.8l1.3-1.1l4,0.9l4.2,0.8
	l2,0.2l2.2,0.1h2.3l2.2-0.2l0.8-0.2l0.9-0.1l1-0.1l0.8-0.3l-1,1.3l-1.1,1.1l-1.1,1l-1.1,1l-1.3,0.8l-1.3,0.9l-2.6,1.3l-2.9,1.1
	l-2.9,0.7l-2.3,0.4l-0.8,0.1l-3.3,0.1h-2.8l-2.7-0.1L300.9,48.2z M319.5,48.2L320,48l1.7-0.8l2-1.2l2-1.3l1.9-1.6l0.9-0.8l0.7-0.9
	l1-1.1l0.8-0.6l3.5,1l3.4,0.7l3.5,0.5l3.6,0.3h3.6l3.6-0.2l3.5-0.5l3.5-0.5l3.3-0.8l3.3-1l-1.4,1.9l-1.6,1.6l-1.8,1.5l-1.8,1.2
	l-2,1.1l-2,1l-1.2,0.5l-2.8,1.4l-4,1.5l-4.1,1.3l-4.3,1.2l-4.3,0.8l-4.5,0.5l-4.5,0.3h-4.6l-4.7-0.1l-1-0.3l-1.1-0.2l-2.3-0.2
	l-2.3-0.3l-1.1-0.1l-1-0.3l-1.8-0.2l0.8-0.5l0.7-0.6l1.4-1.2l0.8-0.6l0.8-0.4l1-0.2l0.9,0.1l3.4-0.6l1.5-0.4l1.6-0.7l0.9-0.2
	L319.5,48.2z M55.4,32.8l1,1.1l1,1.2l1.2,1l1.2,0.9l1.3,0.8l1.4,0.7l1.3,0.5l1.5,0.2l0.9,0.5l1,0.2l1,0.3l1,0.2l-1,0.6l-1.2,0.2
	l-1.3,0.2l-1.2,0.2l-3.2,0.4L58,42.1l-3.3,0.2l-3.3,0.1l-3.3-0.2L45.1,42L42,41.5L38.9,41l-3.6-1.3L33.5,39l-1.8-0.9L30,37.3
	l-1.6-1.1L27,34.8l-1.3-1.5l7.3,0.6l3.7,0.3l3.7,0.1l3.6-0.1l3.7-0.3l3.6-0.4l3.5-0.7L55.4,32.8L55.4,32.8L55.4,32.8z M107,40.1
	l0.5,0.8l0.7,0.6l1.5,1.2l1.6,0.9l1.7,0.5l-2.3,0.8l-2.4,0.6L106,46l-2.4,0.4l-2.4,0.3l-2.6,0.1H96l-2.5-0.1L91,46.5L88.5,46
	l-2.4-0.5l-2.3-0.6l-4.4-1.6L75,41.7L74.2,41l-1-0.4l6-0.3l3-0.4l3-0.5l2.4-0.2l2.4-0.5l4.7-1.1l1.2,1.1l1.4,0.8l1.6,0.6l1.5,0.3
	l1.7,0.3h1.7l1.6-0.2L107,40.1z"/>
</svg>
